<mxfile host="Electron" modified="2025-06-27T18:25:54.303Z" agent="Mozilla/5.0 (Macintosh; Intel Mac OS X 10_15_7) AppleWebKit/537.36 (KHTML, like Gecko) draw.io/21.2.8 Chrome/112.0.5615.165 Electron/24.2.0 Safari/537.36" etag="1xFImY5QYexgJ17sWgCB" version="21.2.8" type="device">
  <diagram name="Page-1" id="jODOlp-hQtB9rCSIbdNt">
    <mxGraphModel dx="303" dy="778" grid="1" gridSize="10" guides="1" tooltips="1" connect="1" arrows="1" fold="1" page="1" pageScale="1" pageWidth="850" pageHeight="1100" math="0" shadow="0">
      <root>
        <mxCell id="0" />
        <mxCell id="1" parent="0" />
        <mxCell id="76zrJTwIecXoBc1lrxkZ-1" value="" style="rounded=0;whiteSpace=wrap;html=1;fontFamily=IBM Plex Sans;fontSource=fonts%2FIBMPlexSans-Regular.woff;fontSize=14;spacingBottom=-28;spacingTop=0;labelPosition=-100;verticalLabelPosition=top;align=center;verticalAlign=bottom;spacingLeft=9;spacing=0;expand=0;recursiveResize=0;spacingRight=0;container=1;collapsible=0;strokeColor=#1192E8;fillColor=none;" parent="1" vertex="1">
          <mxGeometry x="880" y="30" width="780" height="490" as="geometry">
            <mxRectangle width="670" as="alternateBounds" />
          </mxGeometry>
        </mxCell>
        <mxCell id="76zrJTwIecXoBc1lrxkZ-2" value="" style="rounded=0;whiteSpace=wrap;html=1;fontFamily=IBM Plex Sans;fontSource=fonts%2FIBMPlexSans-Regular.woff;fontSize=14;spacingBottom=-28;spacingTop=0;labelPosition=-100;verticalLabelPosition=top;align=center;verticalAlign=bottom;spacingLeft=9;spacing=0;expand=0;recursiveResize=0;spacingRight=0;container=1;collapsible=0;strokeColor=#878d96;fillColor=none;" parent="76zrJTwIecXoBc1lrxkZ-1" vertex="1">
          <mxGeometry x="30" y="190" width="520" height="270" as="geometry">
            <mxRectangle width="670" as="alternateBounds" />
          </mxGeometry>
        </mxCell>
        <mxCell id="76zrJTwIecXoBc1lrxkZ-3" value="Region" style="text;html=1;strokeColor=none;fillColor=none;align=left;verticalAlign=middle;whiteSpace=wrap;rounded=0;fontFamily=IBM Plex Sans;fontSource=fonts%2FIBMPlexSans-Regular.woff;fontSize=14;" parent="76zrJTwIecXoBc1lrxkZ-2" vertex="1">
          <mxGeometry x="51" y="8" width="168" height="20" as="geometry" />
        </mxCell>
        <mxCell id="76zrJTwIecXoBc1lrxkZ-4" value="" style="rounded=0;whiteSpace=wrap;html=1;strokeColor=none;fillColor=#878d96;" parent="76zrJTwIecXoBc1lrxkZ-2" vertex="1">
          <mxGeometry width="7" height="37" as="geometry" />
        </mxCell>
        <mxCell id="76zrJTwIecXoBc1lrxkZ-5" style="edgeStyle=orthogonalEdgeStyle;rounded=0;orthogonalLoop=1;jettySize=auto;html=1;exitX=0;exitY=0.5;exitDx=0;exitDy=0;entryX=1.009;entryY=0.22;entryDx=0;entryDy=0;entryPerimeter=0;fontFamily=IBM Plex Sans;fontSource=fonts%2FIBMPlexSans-Regular.woff;fontSize=14;startArrow=oval;startFill=1;strokeColor=#198038;" parent="76zrJTwIecXoBc1lrxkZ-2" edge="1">
          <mxGeometry relative="1" as="geometry" />
        </mxCell>
        <mxCell id="76zrJTwIecXoBc1lrxkZ-6" value="" style="shape=image;aspect=fixed;image=data:image/svg+xml,PD94bWwgdmVyc2lvbj0iMS4wIiBlbmNvZGluZz0iVVRGLTgiPz4KPHN2ZyB3aWR0aD0iMjNweCIgaGVpZ2h0PSIyOHB4IiB2aWV3Qm94PSIwIDAgMjMgMjgiIHZlcnNpb249IjEuMSIgeG1sbnM9Imh0dHA6Ly93d3cudzMub3JnLzIwMDAvc3ZnIiB4bWxuczp4bGluaz0iaHR0cDovL3d3dy53My5vcmcvMTk5OS94bGluayI+CiAgICA8IS0tIEdlbmVyYXRvcjogU2tldGNoIDUzICg3MjUyMCkgLSBodHRwczovL3NrZXRjaGFwcC5jb20gLS0+CiAgICA8dGl0bGU+UmVnaW9uIEJsYWNrPC90aXRsZT4KICAgIDxkZXNjPkNyZWF0ZWQgd2l0aCBTa2V0Y2guPC9kZXNjPgogICAgPGcgaWQ9IlBhZ2UtMSIgc3Ryb2tlPSJub25lIiBzdHJva2Utd2lkdGg9IjEiIGZpbGw9Im5vbmUiIGZpbGwtcnVsZT0iZXZlbm9kZCI+CiAgICAgICAgPGcgaWQ9IlJlZ2lvbi1CbGFjayIgdHJhbnNmb3JtPSJ0cmFuc2xhdGUoMC4xMjUwMDAsIDAuMDAwMDAwKSIgZmlsbD0iIzAwMDAwMCI+CiAgICAgICAgICAgIDxwYXRoIGQ9Ik0xMS4wMDAyLDggQzkuMzQzMiw4IDguMDAwMiw5LjM0MyA4LjAwMDIsMTEgQzguMDAwMiwxMi42NTcgOS4zNDMyLDE0IDExLjAwMDIsMTQgQzEyLjY1NzIsMTQgMTQuMDAwMiwxMi42NTcgMTQuMDAwMiwxMSBDMTMuOTk4Miw5LjM0NCAxMi42NTYyLDguMDAyIDExLjAwMDIsOCBNMTEuMDAwMiwxNiBDOC4yMzgyLDE2IDYuMDAwMiwxMy43NjEgNi4wMDAyLDExIEM2LjAwMDIsOC4yMzkgOC4yMzgyLDYgMTEuMDAwMiw2IEMxMy43NjEyLDYgMTYuMDAwMiw4LjIzOSAxNi4wMDAyLDExIEMxNS45OTcyLDEzLjc2IDEzLjc2MDIsMTUuOTk3IDExLjAwMDIsMTYiIGlkPSJGaWxsLTEiPjwvcGF0aD4KICAgICAgICAgICAgPGcgaWQ9Ikdyb3VwLTUiPgogICAgICAgICAgICAgICAgPHBhdGggZD0iTTMuODEyNywxNi4zOTUgQzMuODEzNywxNi4zOTUgNC4wNDU3LDE2LjcwMyA0LjA5ODcsMTYuNzcgTDEwLjk5OTcsMjQuOTA4IEwxNy45MTA3LDE2Ljc1OCBDMTcuOTU0NywxNi43MDMgMTguMTg4NywxNi4zOTMgMTguMTg4NywxNi4zOTIgQzE5LjM2NjcsMTQuODQxIDIwLjAwMTcsMTIuOTQ3IDE5Ljk5OTcsMTEgQzE5Ljk5OTcsNi4wMjkgMTUuOTcwNywyIDEwLjk5OTcsMiBDNi4wMjk3LDIgMi4wMDA3LDYuMDI5IDIuMDAwNywxMSBDMS45OTc3LDEyLjk0OCAyLjYzNDcsMTQuODQzIDMuODEyNywxNi4zOTUgTDMuODEyNywxNi4zOTUgWiBNMTAuOTk5NywyOCBMMi41NjQ3LDE4LjA1MSBDMi41MTY3LDE3Ljk5NCAyLjIxNjcsMTcuNiAyLjIxNjcsMTcuNiBDMC43NzQ3LDE1LjcwMiAtMC4wMDMzLDEzLjM4MyAtMC4wMDAzLDExIEMtMC4wMDAzLDQuOTI1IDQuOTI0NywwIDEwLjk5OTcsMCBDMTcuMDc1NywwIDIxLjk5OTcsNC45MjUgMjEuOTk5NywxMSBDMjIuMDAyNywxMy4zODIgMjEuMjI1NywxNS43IDE5Ljc4NTcsMTcuNTk3IEwxOS43ODM3LDE3LjYgQzE5Ljc4MzcsMTcuNiAxOS40ODM3LDE3Ljk5NCAxOS40Mzg3LDE4LjA0NyBMMTAuOTk5NywyOCBaIiBpZD0iRmlsbC0zIj48L3BhdGg+CiAgICAgICAgICAgIDwvZz4KICAgICAgICA8L2c+CiAgICA8L2c+Cjwvc3ZnPg==;" parent="76zrJTwIecXoBc1lrxkZ-2" vertex="1">
          <mxGeometry x="22.66" y="6" width="17" height="20.69" as="geometry" />
        </mxCell>
        <mxCell id="76zrJTwIecXoBc1lrxkZ-7" value="" style="rounded=0;whiteSpace=wrap;html=1;fontFamily=IBM Plex Sans;fontSource=fonts%2FIBMPlexSans-Regular.woff;fontSize=14;fillColor=none;spacingBottom=-28;spacingTop=0;labelPosition=-100;verticalLabelPosition=top;align=center;verticalAlign=bottom;spacingLeft=9;spacing=0;expand=0;recursiveResize=0;spacingRight=0;container=1;collapsible=0;strokeColor=#FA4D56;strokeWidth=1;" parent="76zrJTwIecXoBc1lrxkZ-2" vertex="1">
          <mxGeometry x="30" y="37" width="380" height="203" as="geometry">
            <mxRectangle width="670" as="alternateBounds" />
          </mxGeometry>
        </mxCell>
        <mxCell id="76zrJTwIecXoBc1lrxkZ-8" value="" style="rounded=0;whiteSpace=wrap;html=1;strokeColor=none;fillColor=#FA4D56;" parent="76zrJTwIecXoBc1lrxkZ-7" vertex="1">
          <mxGeometry width="7" height="37" as="geometry" />
        </mxCell>
        <mxCell id="76zrJTwIecXoBc1lrxkZ-9" value="Resource Group" style="text;html=1;strokeColor=none;fillColor=none;align=left;verticalAlign=middle;whiteSpace=wrap;rounded=0;fontFamily=IBM Plex Sans;fontSource=fonts%2FIBMPlexSans-Regular.woff;fontSize=14;" parent="76zrJTwIecXoBc1lrxkZ-7" vertex="1">
          <mxGeometry x="50.33" y="8" width="170" height="20" as="geometry" />
        </mxCell>
        <mxCell id="76zrJTwIecXoBc1lrxkZ-10" value="" style="shape=image;aspect=fixed;image=data:image/svg+xml,PD94bWwgdmVyc2lvbj0iMS4wIiBlbmNvZGluZz0iVVRGLTgiPz4KPHN2ZyB3aWR0aD0iMjlweCIgaGVpZ2h0PSIyOHB4IiB2aWV3Qm94PSIwIDAgMjkgMjgiIHZlcnNpb249IjEuMSIgeG1sbnM9Imh0dHA6Ly93d3cudzMub3JnLzIwMDAvc3ZnIiB4bWxuczp4bGluaz0iaHR0cDovL3d3dy53My5vcmcvMTk5OS94bGluayI+CiAgICA8IS0tIEdlbmVyYXRvcjogU2tldGNoIDUzICg3MjUyMCkgLSBodHRwczovL3NrZXRjaGFwcC5jb20gLS0+CiAgICA8dGl0bGU+UmVzb3VyY2UgR3JvdXAgQmxhY2s8L3RpdGxlPgogICAgPGRlc2M+Q3JlYXRlZCB3aXRoIFNrZXRjaC48L2Rlc2M+CiAgICA8ZGVmcz4KICAgICAgICA8cG9seWdvbiBpZD0icGF0aC0xIiBwb2ludHM9IjAgMCAyOCAwIDI4IDI4IDAgMjgiPjwvcG9seWdvbj4KICAgIDwvZGVmcz4KICAgIDxnIGlkPSJQYWdlLTEiIHN0cm9rZT0ibm9uZSIgc3Ryb2tlLXdpZHRoPSIxIiBmaWxsPSJub25lIiBmaWxsLXJ1bGU9ImV2ZW5vZGQiPgogICAgICAgIDxnIGlkPSJSZXNvdXJjZS1Hcm91cC1CbGFjayIgdHJhbnNmb3JtPSJ0cmFuc2xhdGUoMC4zNzUwMDAsIDAuMDAwMDAwKSI+CiAgICAgICAgICAgIDxtYXNrIGlkPSJtYXNrLTIiIGZpbGw9IndoaXRlIj4KICAgICAgICAgICAgICAgIDx1c2UgeGxpbms6aHJlZj0iI3BhdGgtMSI+PC91c2U+CiAgICAgICAgICAgIDwvbWFzaz4KICAgICAgICAgICAgPGcgaWQ9IkNsaXAtMiI+PC9nPgogICAgICAgICAgICA8cGF0aCBkPSJNOCwyMCBMMjAsMjAgTDIwLDggTDgsOCBMOCwyMCBaIE0yMCwyMiBMOCwyMiBDNi44OTYsMjEuOTk5IDYuMDAxLDIxLjEwNCA2LDIwIEw2LDggQzYuMDAxLDYuODk2IDYuODk2LDYuMDAxIDgsNiBMMjAsNiBDMjEuMTA0LDYuMDAxIDIxLjk5OSw2Ljg5NiAyMiw4IEwyMiwyMCBDMjEuOTk5LDIxLjEwNCAyMS4xMDQsMjEuOTk5IDIwLDIyIEwyMCwyMiBaIiBpZD0iRmlsbC0xIiBmaWxsPSIjMDAwMDAwIiBtYXNrPSJ1cmwoI21hc2stMikiPjwvcGF0aD4KICAgICAgICAgICAgPHBhdGggZD0iTTUuOTk5OCwyOCBMMS45OTk4LDI4IEMwLjg5NTgsMjcuOTk5IDAuMDAwOCwyNy4xMDQgLTAuMDAwMiwyNiBMLTAuMDAwMiwyIEMwLjAwMDgsMC44OTYgMC44OTU4LDAuMDAxIDEuOTk5OCwwIEw1Ljk5OTgsMCBMNS45OTk4LDIgTDEuOTk5OCwyIEwxLjk5OTgsMjYgTDUuOTk5OCwyNiBMNS45OTk4LDI4IFoiIGlkPSJGaWxsLTMiIGZpbGw9IiMwMDAwMDAiIG1hc2s9InVybCgjbWFzay0yKSI+PC9wYXRoPgogICAgICAgICAgICA8cGF0aCBkPSJNMjYuMDAwMywyOCBMMjIuMDAwMywyOCBMMjIuMDAwMywyNiBMMjYuMDAwMywyNiBMMjYuMDAwMywyIEwyMi4wMDAzLDIgTDIyLjAwMDMsMCBMMjYuMDAwMywwIEMyNy4xMDQzLDAuMDAxIDI3Ljk5OTMsMC44OTYgMjguMDAwMywyIEwyOC4wMDAzLDI2IEMyNy45OTkzLDI3LjEwNCAyNy4xMDQzLDI3Ljk5OSAyNi4wMDAzLDI4IiBpZD0iRmlsbC00IiBmaWxsPSIjMDAwMDAwIiBtYXNrPSJ1cmwoI21hc2stMikiPjwvcGF0aD4KICAgICAgICA8L2c+CiAgICA8L2c+Cjwvc3ZnPg==;" parent="76zrJTwIecXoBc1lrxkZ-7" vertex="1">
          <mxGeometry x="20" y="8.840000000000055" width="20" height="19.31" as="geometry" />
        </mxCell>
        <object label="" release="v2.1.2" generation="2.0" id="76zrJTwIecXoBc1lrxkZ-12">
          <mxCell style="rounded=0;whiteSpace=wrap;html=1;fontFamily=IBM Plex Sans;fontSize=14;fillColor=none;spacingBottom=-28;spacingTop=0;labelPosition=-100;verticalLabelPosition=top;align=center;verticalAlign=bottom;spacingLeft=-55;spacing=0;expand=0;recursiveResize=0;spacingRight=0;container=1;collapsible=0;strokeColor=#FA4D56;strokeWidth=1;" parent="76zrJTwIecXoBc1lrxkZ-7" vertex="1">
            <mxGeometry x="30" y="43.27" width="140" height="130" as="geometry">
              <mxRectangle width="670" as="alternateBounds" />
            </mxGeometry>
          </mxCell>
        </object>
        <mxCell id="76zrJTwIecXoBc1lrxkZ-13" value="" style="rounded=0;whiteSpace=wrap;html=1;strokeColor=#FA4D56;fillColor=#FA4D56;fontFamily=IBM Plex Sans;fontSize=14;" parent="76zrJTwIecXoBc1lrxkZ-12" vertex="1">
          <mxGeometry width="4" height="48" as="geometry" />
        </mxCell>
        <mxCell id="76zrJTwIecXoBc1lrxkZ-14" value="" style="shape=image;image=data:image/svg+xml,PD94bWwgdmVyc2lvbj0iMS4wIiBlbmNvZGluZz0idXRmLTgiPz4KPCEtLSBHZW5lcmF0b3I6IEFkb2JlIElsbHVzdHJhdG9yIDI2LjMuMSwgU1ZHIEV4cG9ydCBQbHVnLUluIC4gU1ZHIFZlcnNpb246IDYuMDAgQnVpbGQgMCkgIC0tPgo8c3ZnIHZlcnNpb249IjEuMSIgaWQ9Imljb24iIHhtbG5zPSJodHRwOi8vd3d3LnczLm9yZy8yMDAwL3N2ZyIgeG1sbnM6eGxpbms9Imh0dHA6Ly93d3cudzMub3JnLzE5OTkveGxpbmsiIHg9IjBweCIgeT0iMHB4IgoJIHdpZHRoPSIzMnB4IiBoZWlnaHQ9IjMycHgiIHZpZXdCb3g9IjAgMCAzMiAzMiIgc3R5bGU9ImVuYWJsZS1iYWNrZ3JvdW5kOm5ldyAwIDAgMzIgMzI7IiB4bWw6c3BhY2U9InByZXNlcnZlIj4KPHN0eWxlIHR5cGU9InRleHQvY3NzIj4KCS5zdDB7ZmlsbDpub25lO30KPC9zdHlsZT4KPHBhdGggZD0iTTI2LDE0LjFWMmgtNXYyaDN2MmgtM3YyaDN2Ni4xYy0xLjcsMC40LTMsMi0zLDMuOWMwLDIuMiwxLjgsNCw0LDRzNC0xLjgsNC00QzI5LDE2LjEsMjcuNywxNC42LDI2LDE0LjF6IE0yNSwyMAoJYy0xLjEsMC0yLTAuOS0yLTJjMC0xLjEsMC45LTIsMi0yczIsMC45LDIsMkMyNywxOS4xLDI2LjEsMjAsMjUsMjB6Ii8+CjxwYXRoIGQ9Ik0xNSwzMWwtNS41LTMuMmMtMy40LTItNS41LTUuNi01LjUtOS41VjRjMC0xLjEsMC45LTIsMi0yaDEydjJINnYxNC4zYzAsMy4yLDEuNyw2LjIsNC41LDcuOGw0LjUsMi43bDQuNS0yLjcKCWMxLjEtMC43LDIuMS0xLjUsMi44LTIuNmwxLjYsMS4xYy0wLjksMS4zLTIuMSwyLjQtMy41LDMuMkwxNSwzMXoiLz4KPHJlY3QgaWQ9Il94M0NfVHJhbnNwYXJlbnRfUmVjdGFuZ2xlX3gzRV9fMjMyXyIgeT0iMCIgY2xhc3M9InN0MCIgd2lkdGg9IjMyIiBoZWlnaHQ9IjMyIi8+Cjwvc3ZnPgo=;" parent="76zrJTwIecXoBc1lrxkZ-12" vertex="1">
          <mxGeometry x="19.999999999999773" y="6" width="24" height="24" as="geometry" />
        </mxCell>
        <mxCell id="76zrJTwIecXoBc1lrxkZ-15" value="Key Protect" style="text;html=1;strokeColor=none;fillColor=none;align=left;verticalAlign=middle;whiteSpace=wrap;rounded=0;fontFamily=IBM Plex Sans;fontSize=14;" parent="76zrJTwIecXoBc1lrxkZ-12" vertex="1">
          <mxGeometry x="51" y="8" width="163" height="20" as="geometry" />
        </mxCell>
        <object label="Encryption&#xa;Key" release="v2.1.2" generation="2.0" id="76zrJTwIecXoBc1lrxkZ-16">
          <mxCell style="shape=image;verticalLabelPosition=bottom;verticalAlign=top;imageAspect=0;aspect=fixed;image=data:image/svg+xml,PHN2ZyB4bWxuczp4bGluaz0iaHR0cDovL3d3dy53My5vcmcvMTk5OS94bGluayIgeG1sbnM9Imh0dHA6Ly93d3cudzMub3JnLzIwMDAvc3ZnIiB2ZXJzaW9uPSIxLjEiIHZpZXdCb3g9IjAgMCA0OCA0OCIgaGVpZ2h0PSI0OHB4IiB3aWR0aD0iNDhweCI+JiN4YTsgICAgPHRpdGxlPktleTwvdGl0bGU+JiN4YTsgICAgPGcgZmlsbC1ydWxlPSJldmVub2RkIiBmaWxsPSJub25lIiBzdHJva2Utd2lkdGg9IjEiIHN0cm9rZT0ibm9uZSIgaWQ9IlYyLUljb25zIj4mI3hhOyAgICAgICAgPGcgdHJhbnNmb3JtPSJ0cmFuc2xhdGUoLTEzMjIsIC0xMykiIGlkPSJJQk0tLy1DbG91ZC0vLVNlY3VyaXR5Ij4mI3hhOyAgICAgICAgICAgIDxnIHRyYW5zZm9ybT0idHJhbnNsYXRlKDEzMjIsIDEzKSIgaWQ9IktleSI+JiN4YTsgICAgICAgICAgICAgICAgPHJlY3QgaGVpZ2h0PSI0OCIgd2lkdGg9IjQ4IiB5PSIwIiB4PSIwIiBmaWxsPSIjRkE0RDU2IiBpZD0iUmVjdGFuZ2xlIi8+JiN4YTsgICAgICAgICAgICAgICAgPGcgdHJhbnNmb3JtPSJ0cmFuc2xhdGUoMTIsIDEyKSI+JiN4YTsgICAgICAgICAgICAgICAgICAgIDxwYXRoIGZpbGwtcnVsZT0ibm9uemVybyIgZmlsbD0iI0ZGRkZGRiIgaWQ9IlNoYXBlIiBkPSJNMTUuNzUsMS40OTk5OTk2NiBDMTMuNjEyNTc3MSwxLjQ5OTQ1MTg3IDExLjYwMTI2NjIsMi41MTE1MzczNiAxMC4zMjgwMDQ2LDQuMjI4MzMxNCBDOS4wNTQ3NDMwOCw1Ljk0NTEyNTQzIDguNjcwMDg5ODcsOC4xNjM2MjI4MiA5LjI5MTA3NSwxMC4yMDg4NSBMMS41LDE3Ljk5OTk5OTcgTDEuNSwyMi40OTk5OTk3IEw2LDIyLjQ5OTk5OTcgTDEzLjc5MTA3NSwxNC43MDg4NSBDMTYuMzI3MTMwOCwxNS40Nzg4NTYyIDE5LjA3OTEyOSwxNC42OTM0NTMxIDIwLjgyNjc2OTUsMTIuNzAwOTA2OCBDMjIuNTc0NDEwMSwxMC43MDgzNjA0IDIyLjk5NDI0NjMsNy44Nzc0NDM2NSAyMS45MDAxMTMsNS40NjM0NTA5MyBDMjAuODA1OTc5NywzLjA0OTQ1ODIxIDE4LjQwMDM3NSwxLjQ5OTE2MjEgMTUuNzUsMS40OTk5OTk2NiBMMTUuNzUsMS40OTk5OTk2NiBaIE0xNS43NSwxMy40OTk5OTkgQzE1LjIzMzU3NzgsMTMuNDk5Njg4NSAxNC43MjAwMTcyLDEzLjQyMzMxOSAxNC4yMjU4NSwxMy4yNzMzNSBMMTMuMzY1NzUsMTMuMDEyNSBMMTIuNzMwMzUsMTMuNjQ3OSBMMTAuMzQ0NTI1LDE2LjAzMzggTDkuMzEwNTc1LDE0Ljk5OTk5OSBMOC4yNSwxNi4wNjA1NzUgTDkuMjg0MDI1LDE3LjA5NDUyNSBMOC4wOTQ2LDE4LjI4NDAyNSBMNy4wNjA1NzUsMTcuMjUgTDYsMTguMzEwNTc1IEw3LjAzNDAyNSwxOS4zNDQ1MjUgTDUuMzc4NywyMC45OTk5OTkgTDMsMjAuOTk5OTk5IEwzLDE4LjYyMTMgTDEwLjM1MTcyNSwxMS4yNjk1NzUgTDEwLjk4NzEyNSwxMC42MzQwMjUgTDEwLjcyNjY1LDkuNzc0IEMxMC4wNjkxNTMyLDcuNjA2NTMxOTUgMTAuODc1ODQ0Myw1LjI2MTc1Mjc3IDEyLjcyNzcwODIsMy45NTc1OTc5OCBDMTQuNTc5NTcyMiwyLjY1MzQ0MzE5IDE3LjA1OTA0OTUsMi42ODM5NzQ0NiAxOC44NzgyMzkyLDQuMDMzMzMzMDkgQzIwLjY5NzQyODgsNS4zODI2OTE3MyAyMS40NDYxMzg4LDcuNzQ2NjIzNDggMjAuNzM1NDcwOCw5Ljg5NzI0NDUxIEMyMC4wMjQ4MDI5LDEyLjA0Nzg2NTUgMTguMDE0OTk4OCwxMy41MDAyNTI0IDE1Ljc1LDEzLjQ5OTk5OSBMMTUuNzUsMTMuNDk5OTk5IFoiLz4mI3hhOyAgICAgICAgICAgICAgICAgICAgPGNpcmNsZSByPSIxLjUiIGN5PSI3LjUiIGN4PSIxNi41IiBmaWxsLXJ1bGU9Im5vbnplcm8iIGZpbGw9IiNGRkZGRkYiIGlkPSJPdmFsIi8+JiN4YTsgICAgICAgICAgICAgICAgICAgIDxyZWN0IGhlaWdodD0iMjQiIHdpZHRoPSIyNCIgeT0iMCIgeD0iMCIgaWQ9Il9UcmFuc3BhcmVudF9SZWN0YW5nbGVfIi8+JiN4YTsgICAgICAgICAgICAgICAgPC9nPiYjeGE7ICAgICAgICAgICAgPC9nPiYjeGE7ICAgICAgICA8L2c+JiN4YTsgICAgPC9nPiYjeGE7PC9zdmc+;fontFamily=IBM Plex Sans;fontSize=14;spacingTop=-7;labelPosition=center;align=center;" parent="76zrJTwIecXoBc1lrxkZ-12" vertex="1">
            <mxGeometry x="46" y="34.71" width="48" height="48" as="geometry" />
          </mxCell>
        </object>
        <mxCell id="76zrJTwIecXoBc1lrxkZ-17" style="edgeStyle=orthogonalEdgeStyle;rounded=0;orthogonalLoop=1;jettySize=auto;html=1;exitX=0;exitY=0.5;exitDx=0;exitDy=0;entryX=1;entryY=0.5;entryDx=0;entryDy=0;" parent="76zrJTwIecXoBc1lrxkZ-7" source="76zrJTwIecXoBc1lrxkZ-11" target="76zrJTwIecXoBc1lrxkZ-16" edge="1">
          <mxGeometry relative="1" as="geometry">
            <mxPoint x="110.82999999999993" y="97.23000000000002" as="sourcePoint" />
            <Array as="points" />
            <mxPoint x="120" y="102.38" as="targetPoint" />
          </mxGeometry>
        </mxCell>
        <object label="Object&#xa;Bucket" release="v2.1.2" generation="2.0" id="76zrJTwIecXoBc1lrxkZ-11">
          <mxCell style="shape=image;aspect=fixed;image=data:image/svg+xml,PD94bWwgdmVyc2lvbj0iMS4wIiBlbmNvZGluZz0iVVRGLTgiPz4KPHN2ZyB3aWR0aD0iNDhweCIgaGVpZ2h0PSI0OXB4IiB2aWV3Qm94PSIwIDAgNDggNDkiIHZlcnNpb249IjEuMSIgeG1sbnM9Imh0dHA6Ly93d3cudzMub3JnLzIwMDAvc3ZnIiB4bWxuczp4bGluaz0iaHR0cDovL3d3dy53My5vcmcvMTk5OS94bGluayI+CiAgICA8dGl0bGU+T2JqZWN0IEJ1Y2tldDwvdGl0bGU+CiAgICA8ZyBpZD0iVjItSWNvbnMiIHN0cm9rZT0ibm9uZSIgc3Ryb2tlLXdpZHRoPSIxIiBmaWxsPSJub25lIiBmaWxsLXJ1bGU9ImV2ZW5vZGQiPgogICAgICAgIDxnIGlkPSJJQk0tLy1DbG91ZC0vLVN0b3JhZ2UiIHRyYW5zZm9ybT0idHJhbnNsYXRlKC01MzQsIC00NykiPgogICAgICAgICAgICA8ZyBpZD0iT2JqZWN0LUJ1Y2tldCIgdHJhbnNmb3JtPSJ0cmFuc2xhdGUoNTM0LCA0Ny45MzYyKSI+CiAgICAgICAgICAgICAgICA8cG9seWdvbiBpZD0iRmlsbC00IiBmaWxsPSIjMEY2MkZFIiBwb2ludHM9IjAgNDggNDggNDggNDggMCAwIDAiPjwvcG9seWdvbj4KICAgICAgICAgICAgICAgIDxwYXRoIGQ9Ik0yOC43NSwzMC4wNjM3NzczIEMyOC4xODE3NTExLDMwLjA2NTAwMjUgMjcuNjM1MzA1NiwzMC4yODI2MzEzIDI3LjIyMTgsMzAuNjcyNDAyMyBMMjQuMjE5MDI1LDI4Ljg3MDY3NzMgQzI0LjI2MDMyNTUsMjguNjY4MTYxNiAyNC4yNjAzMjU1LDI4LjQ1OTM5MzEgMjQuMjE5MDI1LDI4LjI1Njg3NzMgTDI3LjIyMTgsMjYuNDU1MTUyMyBDMjguMDczODYzLDI3LjI5NzA0MzYgMjkuNDExNzE0MiwyNy4zOTQxMDYxIDMwLjM3NjM3NDYsMjYuNjg0MDE5OSBDMzEuMzQxMDM1MSwyNS45NzM5MzM4IDMxLjY0NTg5ODUsMjQuNjY3NjY5OSAzMS4wOTUyMjQ1LDIzLjYwMzkyNjMgQzMwLjU0NDU1MDUsMjIuNTQwMTgyNyAyOS4zMDE5NDc4LDIyLjAzNTAwNDEgMjguMTY1MjQwMiwyMi40MTI3NDQ3IEMyNy4wMjg1MzI2LDIyLjc5MDQ4NTQgMjYuMzM1NDQyNywyMy45Mzg5MTYyIDI2LjUzMDk3NSwyNS4xMjA2NzczIEwyMy41MjgyLDI2LjkyMjQwMjMgQzIyLjYzNTQyMDEsMjYuMDg1MzI5OSAyMS4yMzczMTA5LDI2LjExNTM0MDMgMjAuMzgxMjcyMiwyNi45ODk5NTEgQzE5LjUyNTIzMzUsMjcuODY0NTYxNyAxOS41MjUyMzM1LDI5LjI2Mjk5MjkgMjAuMzgxMjcyMiwzMC4xMzc2MDM3IEMyMS4yMzczMTA5LDMxLjAxMjIxNDQgMjIuNjM1NDIwMSwzMS4wNDIyMjQ3IDIzLjUyODIsMzAuMjA1MTUyMyBMMjYuNTMwOTc1LDMyLjAwNjg3NzMgQzI2LjUxMzU3NzcsMzIuMTA4MzM5NiAyNi41MDMyMjc5LDMyLjIxMDg4NDkgMjYuNSwzMi4zMTM3NzczIEMyNi41LDMzLjU1NjQxOCAyNy41MDczNTkzLDM0LjU2Mzc3NzMgMjguNzUsMzQuNTYzNzc3MyBDMjkuOTkyNjQwNywzNC41NjM3NzczIDMxLDMzLjU1NjQxOCAzMSwzMi4zMTM3NzczIEMzMSwzMS4wNzExMzY2IDI5Ljk5MjY0MDcsMzAuMDYzNzc3MyAyOC43NSwzMC4wNjM3NzczIFogTTI4Ljc1LDI0LjA2Mzc3NzMgQzI5LjE2NDIxMzYsMjQuMDYzNzc3MyAyOS41LDI0LjM5OTU2MzggMjkuNSwyNC44MTM3NzczIEMyOS41LDI1LjIyNzk5MDkgMjkuMTY0MjEzNiwyNS41NjM3NzczIDI4Ljc1LDI1LjU2Mzc3NzMgQzI4LjMzNTc4NjQsMjUuNTYzNzc3MyAyOCwyNS4yMjc5OTA5IDI4LDI0LjgxMzc3NzMgQzI4LjAwMDMzMDksMjQuMzk5NzAwOSAyOC4zMzU5MjM2LDI0LjA2NDEwODIgMjguNzUsMjQuMDYzNzc3MyBMMjguNzUsMjQuMDYzNzc3MyBaIE0yMiwyOS4zMTM3NzczIEMyMS41ODU3ODY0LDI5LjMxMzc3NzMgMjEuMjUsMjguOTc3OTkwOSAyMS4yNSwyOC41NjM3NzczIEMyMS4yNSwyOC4xNDk1NjM4IDIxLjU4NTc4NjQsMjcuODEzNzc3MyAyMiwyNy44MTM3NzczIEMyMi40MTQyMTM2LDI3LjgxMzc3NzMgMjIuNzUsMjguMTQ5NTYzOCAyMi43NSwyOC41NjM3NzczIEMyMi43NDk2NjkxLDI4Ljk3Nzg1MzggMjIuNDE0MDc2NCwyOS4zMTM0NDY1IDIyLDI5LjMxMzc3NzMgTDIyLDI5LjMxMzc3NzMgWiBNMjguNzUsMzMuMDYzNzc3MyBDMjguMzM1Nzg2NCwzMy4wNjM3NzczIDI4LDMyLjcyNzk5MDkgMjgsMzIuMzEzNzc3MyBDMjgsMzEuODk5NTYzOCAyOC4zMzU3ODY0LDMxLjU2Mzc3NzMgMjguNzUsMzEuNTYzNzc3MyBDMjkuMTY0MjEzNiwzMS41NjM3NzczIDI5LjUsMzEuODk5NTYzOCAyOS41LDMyLjMxMzc3NzMgQzI5LjQ5OTY2OTEsMzIuNzI3ODUzOCAyOS4xNjQwNzY0LDMzLjA2MzQ0NjUgMjguNzUsMzMuMDYzNzc3MyBaIiBpZD0iU2hhcGUiIGZpbGw9IiNGRkZGRkYiIGZpbGwtcnVsZT0ibm9uemVybyI+PC9wYXRoPgogICAgICAgICAgICAgICAgPHBhdGggZD0iTTE3LjUsMzMuMDYzNzcxNSBMMTQuNSwzMy4wNjM3NzE1IEMxMy42NzE5NjY5LDMzLjA2MjgyNjcgMTMuMDAwOTUwNiwzMi4zOTE4MTA0IDEzLDMxLjU2Mzc3MTUgTDEzLDE2LjU2Mzc3MTUgQzEzLjAwMDk1MDYsMTUuNzM1NzQ0MyAxMy42NzE5NjY5LDE1LjA2NDcyNzkgMTQuNSwxNS4wNjM3NzE1IEwyMC4xODkyNzUsMTUuMDYzNzcxNSBDMjAuNTg3MzU2NywxNS4wNjI2NjE0IDIwLjk2OTMyOTMsMTUuMjIwOTAwNiAyMS4yNSwxNS41MDMyMDIzIEwyMy44MTA3MjUsMTguMDYzNzcxNSBMMzIuNSwxOC4wNjM3NzE1IEMzMy4zMjgwMzMxLDE4LjA2NDcyNzkgMzMuOTk5MDQ5NCwxOC43MzU3NDQzIDM0LDE5LjU2Mzc3MTUgTDM0LDI1LjU2Mzc3MTUgTDMyLjUsMjUuNTYzNzcxNSBMMzIuNSwxOS41NjM3NzE1IEwyMy4xODkyNzUsMTkuNTYzNzcxNSBMMjAuMTg5Mjc1LDE2LjU2Mzc3MTUgTDE0LjUsMTYuNTYzNzcxNSBMMTQuNSwzMS41NjM3NzE1IEwxNy41LDMxLjU2Mzc3MTUgTDE3LjUsMzMuMDYzNzcxNSBaIiBpZD0iUGF0aCIgZmlsbD0iI0ZGRkZGRiIgZmlsbC1ydWxlPSJub256ZXJvIj48L3BhdGg+CiAgICAgICAgICAgICAgICA8cmVjdCBpZD0iX1RyYW5zcGFyZW50X1JlY3RhbmdsZV8iIHg9IjExLjUiIHk9IjEyLjA2Mzc3NzMiIHdpZHRoPSIyNCIgaGVpZ2h0PSIyNCI+PC9yZWN0PgogICAgICAgICAgICA8L2c+CiAgICAgICAgPC9nPgogICAgPC9nPgo8L3N2Zz4=;fontFamily=IBM Plex Sans;fontSize=14;labelPosition=center;verticalLabelPosition=bottom;align=center;verticalAlign=top;spacingTop=-7;" parent="76zrJTwIecXoBc1lrxkZ-7" vertex="1">
            <mxGeometry x="250.99999999999994" y="78.35999999999999" width="48" height="48" as="geometry" />
          </mxCell>
        </object>
        <object label="" release="v2.1.2" generation="2.0" id="BgY2O2PTcMV9OpzHBaAK-1">
          <mxCell style="rounded=0;whiteSpace=wrap;html=1;fontFamily=IBM Plex Sans;fontSize=14;spacingBottom=-28;spacingTop=0;labelPosition=-100;verticalLabelPosition=top;align=center;verticalAlign=bottom;spacingLeft=9;spacing=0;expand=0;recursiveResize=0;spacingRight=0;container=1;collapsible=0;strokeColor=#1192E8;fillColor=none;" parent="76zrJTwIecXoBc1lrxkZ-7" vertex="1">
            <mxGeometry x="200" y="28.27" width="150" height="145" as="geometry">
              <mxRectangle width="670" as="alternateBounds" />
            </mxGeometry>
          </mxCell>
        </object>
        <mxCell id="BgY2O2PTcMV9OpzHBaAK-2" value="" style="rounded=0;whiteSpace=wrap;html=1;strokeColor=#1192E8;fillColor=#1192E8;" parent="BgY2O2PTcMV9OpzHBaAK-1" vertex="1">
          <mxGeometry width="4" height="48" as="geometry" />
        </mxCell>
        <mxCell id="BgY2O2PTcMV9OpzHBaAK-3" value="Cloud Object&lt;br&gt;Storage" style="text;html=1;strokeColor=none;fillColor=none;align=left;verticalAlign=middle;whiteSpace=wrap;rounded=0;fontFamily=IBM Plex Sans;fontSize=14;" parent="BgY2O2PTcMV9OpzHBaAK-1" vertex="1">
          <mxGeometry x="51" y="8" width="163" height="20" as="geometry" />
        </mxCell>
        <mxCell id="BgY2O2PTcMV9OpzHBaAK-4" value="" style="shape=image;aspect=fixed;image=data:image/svg+xml,PD94bWwgdmVyc2lvbj0iMS4wIiBlbmNvZGluZz0iVVRGLTgiPz4KPHN2ZyB3aWR0aD0iMjlweCIgaGVpZ2h0PSIyOHB4IiB2aWV3Qm94PSIwIDAgMjkgMjgiIHZlcnNpb249IjEuMSIgeG1sbnM9Imh0dHA6Ly93d3cudzMub3JnLzIwMDAvc3ZnIiB4bWxuczp4bGluaz0iaHR0cDovL3d3dy53My5vcmcvMTk5OS94bGluayI+CiAgICA8IS0tIEdlbmVyYXRvcjogU2tldGNoIDUzICg3MjUyMCkgLSBodHRwczovL3NrZXRjaGFwcC5jb20gLS0+CiAgICA8dGl0bGU+SW50ZXJuZXQgU2VydmljZXMgQmxhY2s8L3RpdGxlPgogICAgPGRlc2M+Q3JlYXRlZCB3aXRoIFNrZXRjaC48L2Rlc2M+CiAgICA8ZGVmcz4KICAgICAgICA8cG9seWdvbiBpZD0icGF0aC0xIiBwb2ludHM9IjAgMC4wMDIgMjUuNzk5MSAwLjAwMiAyNS43OTkxIDIzLjAwMjggMCAyMy4wMDI4Ij48L3BvbHlnb24+CiAgICAgICAgPHBvbHlnb24gaWQ9InBhdGgtMyIgcG9pbnRzPSIwLjk5NTc3MjE2MyAwLjk2MTcyMDI2NCAxNi4wNDQgMC45NjE3MjAyNjQgMTYuMDQ0IDE2Ljk5OTcxMjkgMC45OTU3NzIxNjMgMTYuOTk5NzEyOSI+PC9wb2x5Z29uPgogICAgPC9kZWZzPgogICAgPGcgaWQ9IlBhZ2UtMSIgc3Ryb2tlPSJub25lIiBzdHJva2Utd2lkdGg9IjEiIGZpbGw9Im5vbmUiIGZpbGwtcnVsZT0iZXZlbm9kZCI+CiAgICAgICAgPGcgaWQ9IkludGVybmV0LVNlcnZpY2VzLUJsYWNrIiB0cmFuc2Zvcm09InRyYW5zbGF0ZSgwLjAwMDAwMCwgLTEuMDAwMDAwKSI+CiAgICAgICAgICAgIDxnIGlkPSJHcm91cC0zIiB0cmFuc2Zvcm09InRyYW5zbGF0ZSgwLjAwMDAwMCwgMC45OTgyMDApIj4KICAgICAgICAgICAgICAgIDxtYXNrIGlkPSJtYXNrLTIiIGZpbGw9IndoaXRlIj4KICAgICAgICAgICAgICAgICAgICA8dXNlIHhsaW5rOmhyZWY9IiNwYXRoLTEiPjwvdXNlPgogICAgICAgICAgICAgICAgPC9tYXNrPgogICAgICAgICAgICAgICAgPGcgaWQ9IkNsaXAtMiI+PC9nPgogICAgICAgICAgICAgICAgPHBhdGggZD0iTTI1Ljc5OTEsOC4wMDI4IEMyNC42OTUxLDIuNTkxOCAxOS40MTIxLC0wLjg5OTIgMTQuMDAwMSwwLjIwNTggQzEwLjAyOTEsMS4wMTY4IDYuOTQxMSw0LjE0NTggNi4xODAxLDguMTI2OCBDMS43MTkxLDguOTIyOCAtMS4xMDk5LDEzLjUxMTggMC40MTcxLDE3Ljk4MDggQzEuNDY4MSwyMS4wNTI4IDQuNTA2MSwyMy4wMDI4IDcuNzUzMSwyMy4wMDI4IEw5LjAwMTEsMjMuMDAyOCBMOS4wMDExLDIxLjAwMjggTDUuNjk1MSwyMS4wMDI4IEM1LjE1MTEsMjEuMDAyOCA0LjYzMTEsMjAuNzczOCA0LjI0NjEsMjAuMzg2OCBDLTAuMjQzOSwxNS44NzU4IDIuNjcxMSwxMC4zMjY4IDcuMTI0MSwxMC4wMjM4IEw3Ljk2MTEsOS45NjU4IEw4LjMwNzEsNi43NTk4IEM4LjM4MzEsNi4wNTI4IDguNzI0MSw1LjM5OTggOS4yNDUxLDQuOTE1OCBDMTUuMTY1MSwtMC41OTMyIDIyLjMwMzEsMi40MzM4IDIzLjczNzEsOC4wMDI4IEwyNS43OTkxLDguMDAyOCBaIiBpZD0iRmlsbC0xIiBmaWxsPSIjMDAwMDAwIiBtYXNrPSJ1cmwoI21hc2stMikiPjwvcGF0aD4KICAgICAgICAgICAgPC9nPgogICAgICAgICAgICA8ZyBpZD0iR3JvdXAtNiIgdHJhbnNmb3JtPSJ0cmFuc2xhdGUoMTIuMDAwMDAwLCAxMS45OTgyMDApIj4KICAgICAgICAgICAgICAgIDxtYXNrIGlkPSJtYXNrLTQiIGZpbGw9IndoaXRlIj4KICAgICAgICAgICAgICAgICAgICA8dXNlIHhsaW5rOmhyZWY9IiNwYXRoLTMiPjwvdXNlPgogICAgICAgICAgICAgICAgPC9tYXNrPgogICAgICAgICAgICAgICAgPGcgaWQ9IkNsaXAtNSI+PC9nPgogICAgICAgICAgICAgICAgPHBhdGggZD0iTTEzLjAwMjIsMTUuMDAzOCBDMTIuNDUwMiwxNS4wMDM4IDEyLjAwMjIsMTQuNTU1OCAxMi4wMDIyLDE0LjAwMzggQzEyLjAwMjIsMTMuNDUxOCAxMi40NTAyLDEzLjAwMzggMTMuMDAyMiwxMy4wMDM4IEMxMy41NTUyLDEzLjAwMzggMTQuMDAyMiwxMy40NTE4IDE0LjAwMjIsMTQuMDAzOCBDMTQuMDAyMiwxNC41NTU4IDEzLjU1NTIsMTUuMDAzOCAxMy4wMDIyLDE1LjAwMzggTTQuMDAyMiwxMC4wMDM4IEMzLjQ1MDIsMTAuMDAzOCAzLjAwMjIsOS41NTU4IDMuMDAyMiw5LjAwMzggQzMuMDAyMiw4LjQ1MTggMy40NTAyLDguMDAzOCA0LjAwMjIsOC4wMDM4IEM0LjU1NTIsOC4wMDM4IDUuMDAyMiw4LjQ1MTggNS4wMDIyLDkuMDAzOCBDNS4wMDIyLDkuNTU1OCA0LjU1NTIsMTAuMDAzOCA0LjAwMjIsMTAuMDAzOCBNMTMuMDAyMiwzLjAwMzggQzEzLjU1NTIsMy4wMDM4IDE0LjAwMjIsMy40NTE4IDE0LjAwMjIsNC4wMDM4IEMxNC4wMDIyLDQuNTU1OCAxMy41NTUyLDUuMDAzOCAxMy4wMDIyLDUuMDAzOCBDMTIuNDUwMiw1LjAwMzggMTIuMDAyMiw0LjU1NTggMTIuMDAyMiw0LjAwMzggQzEyLjAwMzIsMy40NTE4IDEyLjQ1MDIsMy4wMDM4IDEzLjAwMjIsMy4wMDM4IE0xMy4wMDIyLDExLjAwMzggQzEyLjI5NTIsMTEuMDA2OCAxMS42MTIyLDExLjI2MTggMTEuMDc3MiwxMS43MjI4IEw2Ljk3NzIsOS4yNjE4IEM2Ljk4MzIsOS4xNzU4IDcuMDAyMiw5LjA5MTggNy4wMDIyLDkuMDAzOCBDNy4wMDIyLDguOTE1OCA2Ljk4MzIsOC44MzI4IDYuOTc3Miw4Ljc0NjggTDExLjA3ODIsNi4yODU4IEMxMS42MTMyLDYuNzQ2OCAxMi4yOTYyLDcuMDAwOCAxMy4wMDIyLDcuMDAzOCBDMTQuNjcxMiw3LjAxNDggMTYuMDMyMiw1LjY3MTggMTYuMDQ0Miw0LjAwMzggQzE2LjA1NjIsMi4zMzU4IDE0LjcxMzIsMC45NzM4IDEzLjA0NDIsMC45NjE4IEMxMS4zNzYyLDAuOTQ5OCAxMC4wMTQyLDIuMjkzOCAxMC4wMDIyLDMuOTYxOCBDMTAuMDAxMiw0LjE2NDggMTAuMDIwMiw0LjM2NjggMTAuMDU5Miw0LjU2NTggTDYuMTQ3Miw2LjkxMjggQzQuOTkxMiw1LjcyNDggMy4wOTMyLDUuNjk3OCAxLjkwNDIsNi44NTI4IEMwLjcxNzIsOC4wMDc4IDAuNjg5Miw5LjkwNjggMS44NDUyLDExLjA5NDggQzMuMDAwMiwxMi4yODI4IDQuODk5MiwxMi4zMDk4IDYuMDg3MiwxMS4xNTQ4IEM2LjEwNzIsMTEuMTM0OCA2LjEyNzIsMTEuMTE1OCA2LjE0NjIsMTEuMDk1OCBMMTAuMDU5MiwxMy40NDM4IEM5Ljc1MTIsMTUuMDY5OCAxMC44MTkyLDE2LjYzODggMTIuNDQ2MiwxNi45NDY4IEMxNC4wNzMyLDE3LjI1NDggMTUuNjQyMiwxNi4xODY4IDE1Ljk1MDIsMTQuNTU5OCBDMTYuMjU4MiwxMi45MzI4IDE1LjE5MDIsMTEuMzYzOCAxMy41NjMyLDExLjA1NTggQzEzLjM3ODIsMTEuMDIwOCAxMy4xOTAyLDExLjAwMzggMTMuMDAyMiwxMS4wMDM4IiBpZD0iRmlsbC00IiBmaWxsPSIjMDAwMDAwIiBtYXNrPSJ1cmwoI21hc2stNCkiPjwvcGF0aD4KICAgICAgICAgICAgPC9nPgogICAgICAgIDwvZz4KICAgIDwvZz4KPC9zdmc+;" parent="BgY2O2PTcMV9OpzHBaAK-1" vertex="1">
          <mxGeometry x="16" y="7.999999999999909" width="24.86" height="24" as="geometry" />
        </mxCell>
        <mxCell id="v_ReZwLUWhPx22aXuJ78-10" value="CBR" style="sketch=0;pointerEvents=1;shadow=0;dashed=0;html=1;strokeColor=none;fillColor=#505050;labelPosition=center;verticalLabelPosition=bottom;verticalAlign=top;outlineConnect=0;align=center;shape=mxgraph.office.security.lock_protected;" vertex="1" parent="76zrJTwIecXoBc1lrxkZ-7">
          <mxGeometry x="177" y="104.73000000000002" width="18" height="24.63" as="geometry" />
        </mxCell>
        <object label="Cloud Logs" release="v.2.0.3" generation="2.0" id="76zrJTwIecXoBc1lrxkZ-18">
          <mxCell style="shape=image;aspect=fixed;image=data:image/svg+xml,PD94bWwgdmVyc2lvbj0iMS4wIiBlbmNvZGluZz0iVVRGLTgiPz4KPHN2ZyB3aWR0aD0iNDhweCIgaGVpZ2h0PSI0OHB4IiB2aWV3Qm94PSIwIDAgNDggNDgiIHZlcnNpb249IjEuMSIgeG1sbnM9Imh0dHA6Ly93d3cudzMub3JnLzIwMDAvc3ZnIiB4bWxuczp4bGluaz0iaHR0cDovL3d3dy53My5vcmcvMTk5OS94bGluayI+CiAgICA8dGl0bGU+R3JvdXAgMzUgQ29weTwvdGl0bGU+CiAgICA8ZyBpZD0iUGFnZS0xIiBzdHJva2U9Im5vbmUiIHN0cm9rZS13aWR0aD0iMSIgZmlsbD0ibm9uZSIgZmlsbC1ydWxlPSJldmVub2RkIj4KICAgICAgICA8ZyBpZD0idjItNDh4NDgiIHRyYW5zZm9ybT0idHJhbnNsYXRlKC0yNDIyLCAtMTM4NCkiPgogICAgICAgICAgICA8ZyBpZD0iR3JvdXAtMzUtQ29weSIgdHJhbnNmb3JtPSJ0cmFuc2xhdGUoMjQyMiwgMTM4NCkiPgogICAgICAgICAgICAgICAgPGcgaWQ9IkxvZ2dpbmctdjItSWNvbi1Db3B5LTMiIGZpbGw9IiMwMDlEOUEiPgogICAgICAgICAgICAgICAgICAgIDxwb2x5Z29uIGlkPSJGaWxsLTQiIHBvaW50cz0iMCA0OCA0OCA0OCA0OCAwIDAgMCI+PC9wb2x5Z29uPgogICAgICAgICAgICAgICAgPC9nPgogICAgICAgICAgICAgICAgPGcgaWQ9ImlibS1jbG91ZC0tbG9nZ2luZygyKSIgdHJhbnNmb3JtPSJ0cmFuc2xhdGUoMTIsIDEyKSI+CiAgICAgICAgICAgICAgICAgICAgPHBhdGggZD0iTTE4LjMsNy41IEMxOC41MjUsNy44NzUgMTguODI1LDguMTc1IDE5LjI3NSw4LjQgTDIwLjI1LDguODUgTDIxLjIyNSw4LjQgQzIxLjk3NSw4LjAyNSAyMi41LDcuMiAyMi41LDYuMzc1IEwyMi41LDMgTDIwLjI1LDMgTDIwLjI1LDEuNSBMMjQsMS41IEwyNCw2LjM3NSBDMjQsNy44IDIzLjE3NSw5LjE1IDIxLjgyNSw5Ljc1IEwyMC4xNzUsMTAuNSBMMTguNiw5Ljc1IEMxNy42MjUsOS4zIDE2Ljk1LDguNDc1IDE2LjY1LDcuNSBMMTguMyw3LjUgWiIgaWQ9IlBhdGgiIGZpbGw9IiNGRkZGRkYiIGZpbGwtcnVsZT0ibm9uemVybyI+PC9wYXRoPgogICAgICAgICAgICAgICAgICAgIDxyZWN0IGlkPSJSZWN0YW5nbGUiIGZpbGw9IiNGRkZGRkYiIGZpbGwtcnVsZT0ibm9uemVybyIgeD0iMTIiIHk9IjQuNSIgd2lkdGg9IjYiIGhlaWdodD0iMS41Ij48L3JlY3Q+CiAgICAgICAgICAgICAgICAgICAgPHJlY3QgaWQ9IlJlY3RhbmdsZSIgZmlsbD0iI0ZGRkZGRiIgZmlsbC1ydWxlPSJub256ZXJvIiB4PSIxMiIgeT0iMS41IiB3aWR0aD0iNiIgaGVpZ2h0PSIxLjUiPjwvcmVjdD4KICAgICAgICAgICAgICAgICAgICA8cGF0aCBkPSJNMjEsMTIgTDIxLDE2LjUgTDMsMTYuNSBMMyw0LjUgTDEwLjUsNC41IEwxMC41LDMgTDMsMyBDMi4xNzUsMyAxLjUsMy42NzUgMS41LDQuNSBMMS41LDE2LjUgQzEuNSwxNy4zMjUgMi4xNzUsMTggMywxOCBMOSwxOCBMOSwyMSBMNiwyMSBMNiwyMi41IEwxOCwyMi41IEwxOCwyMSBMMTUsMjEgTDE1LDE4IEwyMSwxOCBDMjEuODI1LDE4IDIyLjUsMTcuMzI1IDIyLjUsMTYuNSBMMjIuNSwxMiBMMjEsMTIgWiBNMTMuNSwyMSBMMTAuNSwyMSBMMTAuNSwxOCBMMTMuNSwxOCBMMTMuNSwyMSBaIiBpZD0iU2hhcGUiIGZpbGw9IiNGRkZGRkYiIGZpbGwtcnVsZT0ibm9uemVybyI+PC9wYXRoPgogICAgICAgICAgICAgICAgICAgIDxyZWN0IGlkPSJfeDNDX1RyYW5zcGFyZW50X1JlY3RhbmdsZV94M0VfXzU4OV8iIHg9IjAiIHk9IjAiIHdpZHRoPSIyNCIgaGVpZ2h0PSIyNCI+PC9yZWN0PgogICAgICAgICAgICAgICAgPC9nPgogICAgICAgICAgICA8L2c+CiAgICAgICAgPC9nPgogICAgPC9nPgo8L3N2Zz4=;fontFamily=IBM Plex Sans;fontSize=14;labelPosition=center;verticalLabelPosition=bottom;align=center;verticalAlign=top;spacingTop=-7;textOpacity=50;" parent="76zrJTwIecXoBc1lrxkZ-2" vertex="1">
            <mxGeometry x="440" y="152" width="48" height="48" as="geometry" />
          </mxCell>
        </object>
        <mxCell id="76zrJTwIecXoBc1lrxkZ-19" style="edgeStyle=orthogonalEdgeStyle;rounded=0;orthogonalLoop=1;jettySize=auto;html=1;entryX=0.008;entryY=0.542;entryDx=0;entryDy=0;dashed=1;entryPerimeter=0;" parent="76zrJTwIecXoBc1lrxkZ-2" target="76zrJTwIecXoBc1lrxkZ-18" edge="1">
          <mxGeometry relative="1" as="geometry">
            <mxPoint x="330" y="160.38" as="sourcePoint" />
            <mxPoint x="211.31999999999988" y="-96.97" as="targetPoint" />
            <Array as="points">
              <mxPoint x="420" y="160" />
              <mxPoint x="420" y="178" />
            </Array>
          </mxGeometry>
        </mxCell>
        <object label="Cloud&#xa;Monitoring" release="v2.1.2" generation="2.0" id="76zrJTwIecXoBc1lrxkZ-20">
          <mxCell style="shape=image;aspect=fixed;image=data:image/svg+xml,PD94bWwgdmVyc2lvbj0iMS4wIiBlbmNvZGluZz0iVVRGLTgiPz4KPHN2ZyB3aWR0aD0iNDhweCIgaGVpZ2h0PSI0OHB4IiB2aWV3Qm94PSIwIDAgNDggNDgiIHZlcnNpb249IjEuMSIgeG1sbnM9Imh0dHA6Ly93d3cudzMub3JnLzIwMDAvc3ZnIiB4bWxuczp4bGluaz0iaHR0cDovL3d3dy53My5vcmcvMTk5OS94bGluayI+CiAgICA8dGl0bGU+Y2xvdWQtLW1vbml0b3Jpbmc8L3RpdGxlPgogICAgPGcgaWQ9IlYyLUljb25zIiBzdHJva2U9Im5vbmUiIHN0cm9rZS13aWR0aD0iMSIgZmlsbD0ibm9uZSIgZmlsbC1ydWxlPSJldmVub2RkIj4KICAgICAgICA8ZyBpZD0iSUJNLUNsb3VkLS8tT2JzZXJ2YWJpbGl0eSIgdHJhbnNmb3JtPSJ0cmFuc2xhdGUoLTM3MSwgLTQ5KSI+CiAgICAgICAgICAgIDxnIGlkPSJjbG91ZC0tbW9uaXRvcmluZyIgdHJhbnNmb3JtPSJ0cmFuc2xhdGUoMzcxLCA0OSkiPgogICAgICAgICAgICAgICAgPHJlY3QgaWQ9IlJlY3RhbmdsZS1Db3B5LTI1IiBmaWxsPSIjMDA5RDlBIiB4PSIwIiB5PSIwIiB3aWR0aD0iNDgiIGhlaWdodD0iNDgiPjwvcmVjdD4KICAgICAgICAgICAgICAgIDxnIHRyYW5zZm9ybT0idHJhbnNsYXRlKDExLCAxMikiPgogICAgICAgICAgICAgICAgICAgIDxwYXRoIGQ9Ik0yMSwxMiBMMjEsMTYuNSBMMywxNi41IEwzLDQuNSBMOC4yNSw0LjUgTDguMjUsMyBMMywzIEMyLjE3MTU3Mjg4LDMgMS41LDMuNjcxNTcyODggMS41LDQuNSBMMS41LDE2LjUgQzEuNSwxNy4zMjg0MjcxIDIuMTcxNTcyODgsMTggMywxOCBMOSwxOCBMOSwyMSBMNiwyMSBMNiwyMi41IEwxOCwyMi41IEwxOCwyMSBMMTUsMjEgTDE1LDE4IEwyMSwxOCBDMjEuODI4NDI3MSwxOCAyMi41LDE3LjMyODQyNzEgMjIuNSwxNi41IEwyMi41LDEyIEwyMSwxMiBaIE0xMy41LDIxIEwxMC41LDIxIEwxMC41LDE4IEwxMy41LDE4IEwxMy41LDIxIFoiIGlkPSJTaGFwZSIgZmlsbD0iI0ZGRkZGRiIgZmlsbC1ydWxlPSJub256ZXJvIj48L3BhdGg+CiAgICAgICAgICAgICAgICAgICAgPHBhdGggZD0iTTEzLjUsMTMuNSBMMTMuNDkyNSwxMy41IEMxMy4xNjA1Mzc3LDEzLjQ5NjUzMjMgMTIuODcwMzUxOSwxMy4yNzUyMzkzIDEyLjc3OTE3NSwxMi45NTYwMjUgTDExLjQzNDIsOC4yNSBMOC4yNSw4LjI1IEw4LjI1LDYuNzUgTDEyLDYuNzUgQzEyLjMzNDgzNzEsNi43NTAwMDA0NyAxMi42MjkxMTE4LDYuOTcxOTUzNjggMTIuNzIxMTI1LDcuMjkzOSBMMTMuNTI2Nzc1LDEwLjExMzA3NSBMMTUuNzgzMzc1LDIuNzc5MzUgQzE1Ljg4MzExMDUsMi40NjY4Mjk4NyAxNi4xNzE5Njk0LDIuMjUzNDU4MiAxNi41LDIuMjQ5OTE4OCBDMTYuODI0MzYyMSwyLjI0NTIwMDE0IDE3LjExMzUxMywyLjQ1MzYxMzEyIDE3LjIxMTUyNSwyLjc2Mjg1IEwxOC41NDA1MjUsNi43NSBMMjIuNSw2Ljc1IEwyMi41LDguMjUgTDE4LDguMjUgQzE3LjY3NzE2NzEsOC4yNTAwMDI0IDE3LjM5MDU1NDgsOC4wNDM0MTkyMSAxNy4yODg0NzUsNy43MzcxNSBMMTYuNTI4NTc1LDUuNDU3MTUgTDE0LjIxNjcsMTIuOTcwNjUgQzE0LjExOTg1NSwxMy4yODUyNjI0IDEzLjgyOTE4MDcsMTMuNSAxMy41LDEzLjUgWiIgaWQ9IlBhdGgiIGZpbGw9IiNGRkZGRkYiIGZpbGwtcnVsZT0ibm9uemVybyI+PC9wYXRoPgogICAgICAgICAgICAgICAgICAgIDxyZWN0IGlkPSJfVHJhbnNwYXJlbnRfUmVjdGFuZ2xlXyIgeD0iMCIgeT0iMCIgd2lkdGg9IjI0IiBoZWlnaHQ9IjI0Ij48L3JlY3Q+CiAgICAgICAgICAgICAgICA8L2c+CiAgICAgICAgICAgIDwvZz4KICAgICAgICA8L2c+CiAgICA8L2c+Cjwvc3ZnPg==;fontFamily=IBM Plex Sans;fontSize=14;spacingTop=-7;labelPosition=center;verticalLabelPosition=bottom;align=center;verticalAlign=top;textOpacity=50;" parent="76zrJTwIecXoBc1lrxkZ-2" vertex="1">
            <mxGeometry x="440" y="37.000000000000014" width="48" height="48" as="geometry" />
          </mxCell>
        </object>
        <mxCell id="76zrJTwIecXoBc1lrxkZ-21" style="edgeStyle=orthogonalEdgeStyle;rounded=0;orthogonalLoop=1;jettySize=auto;html=1;dashed=1;entryX=0;entryY=0.5;entryDx=0;entryDy=0;" parent="76zrJTwIecXoBc1lrxkZ-2" target="76zrJTwIecXoBc1lrxkZ-20" edge="1">
          <mxGeometry relative="1" as="geometry">
            <mxPoint x="211.66000000000003" y="-16.96999999999997" as="targetPoint" />
            <Array as="points">
              <mxPoint x="420" y="120" />
              <mxPoint x="420" y="61" />
            </Array>
            <mxPoint x="330" y="120.38" as="sourcePoint" />
          </mxGeometry>
        </mxCell>
        <mxCell id="76zrJTwIecXoBc1lrxkZ-22" value="" style="rounded=0;whiteSpace=wrap;html=1;fontFamily=IBM Plex Sans;fontSource=fonts%2FIBMPlexSans-Regular.woff;fontSize=14;fillColor=none;spacingBottom=-28;spacingTop=0;labelPosition=-100;verticalLabelPosition=top;align=center;verticalAlign=bottom;spacingLeft=9;spacing=0;expand=0;recursiveResize=0;spacingRight=0;container=1;collapsible=0;strokeColor=#FA4D56;strokeWidth=1;" parent="76zrJTwIecXoBc1lrxkZ-1" vertex="1">
          <mxGeometry x="30" y="37" width="520" height="103" as="geometry">
            <mxRectangle width="670" as="alternateBounds" />
          </mxGeometry>
        </mxCell>
        <mxCell id="76zrJTwIecXoBc1lrxkZ-23" value="IBM Cloud Billing" style="text;html=1;strokeColor=none;fillColor=none;align=left;verticalAlign=middle;whiteSpace=wrap;rounded=0;fontFamily=IBM Plex Sans;fontSource=fonts%2FIBMPlexSans-Regular.woff;fontSize=14;" parent="76zrJTwIecXoBc1lrxkZ-22" vertex="1">
          <mxGeometry x="50.33" y="8" width="170" height="20" as="geometry" />
        </mxCell>
        <mxCell id="76zrJTwIecXoBc1lrxkZ-24" value="" style="shape=image;aspect=fixed;image=data:image/svg+xml,PHN2ZyBpZD0iaWNvbiIgeG1sbnM9Imh0dHA6Ly93d3cudzMub3JnLzIwMDAvc3ZnIiB3aWR0aD0iMzIiIGhlaWdodD0iMzIiIHZpZXdCb3g9IjAgMCAzMiAzMiI+CiAgPGRlZnM+CiAgICA8c3R5bGU+CiAgICAgIC5jbHMtMSB7CiAgICAgICAgZmlsbDogbm9uZTsKICAgICAgfQogICAgPC9zdHlsZT4KICA8L2RlZnM+CiAgPHBhdGggZD0iTTE1LDIwSDlhMywzLDAsMCwwLTMsM3YySDhWMjNhMSwxLDAsMCwxLDEtMWg2YTEsMSwwLDAsMSwxLDF2MmgyVjIzQTMsMywwLDAsMCwxNSwyMFoiIHRyYW5zZm9ybT0idHJhbnNsYXRlKDAgMCkiLz4KICA8cGF0aCBkPSJNMTIsMTlhNCw0LDAsMSwwLTQtNEE0LDQsMCwwLDAsMTIsMTlabTAtNmEyLDIsMCwxLDEtMiwyQTIsMiwwLDAsMSwxMiwxM1oiIHRyYW5zZm9ybT0idHJhbnNsYXRlKDAgMCkiLz4KICA8cGF0aCBkPSJNMjgsMTl2OUg0VjhIMTZWNkg0QTIsMiwwLDAsMCwyLDhWMjhhMiwyLDAsMCwwLDIsMkgyOGEyLDIsMCwwLDAsMi0yVjE5WiIgdHJhbnNmb3JtPSJ0cmFuc2xhdGUoMCAwKSIvPgogIDxyZWN0IHg9IjIwIiB5PSIxOSIgd2lkdGg9IjYiIGhlaWdodD0iMiIvPgogIDxyZWN0IHg9IjIyIiB5PSIyMyIgd2lkdGg9IjQiIGhlaWdodD0iMiIvPgogIDxwYXRoIGQ9Ik0zMiwxMFY4SDI5Ljg5ODlhNC45Njc4LDQuOTY3OCwwLDAsMC0uNzMxOS0xLjc1MjlsMS40OS0xLjQ5LTEuNDE0LTEuNDE0LTEuNDksMS40OUE0Ljk2NzgsNC45Njc4LDAsMCwwLDI2LDQuMTAxMVYySDI0VjQuMTAxMWE0Ljk2NzgsNC45Njc4LDAsMCwwLTEuNzUyOS43MzE5bC0xLjQ5LTEuNDktMS40MTQsMS40MTQsMS40OSwxLjQ5QTQuOTY3OCw0Ljk2NzgsMCwwLDAsMjAuMTAxMSw4SDE4djJoMi4xMDExYTQuOTY3OCw0Ljk2NzgsMCwwLDAsLjczMTksMS43NTI5bC0xLjQ5LDEuNDksMS40MTQsMS40MTQsMS40OS0xLjQ5QTQuOTY3OCw0Ljk2NzgsMCwwLDAsMjQsMTMuODk4OVYxNmgyVjEzLjg5ODlhNC45Njc4LDQuOTY3OCwwLDAsMCwxLjc1MjktLjczMTlsMS40OSwxLjQ5LDEuNDE0LTEuNDE0LTEuNDktMS40OUE0Ljk2NzgsNC45Njc4LDAsMCwwLDI5Ljg5ODksMTBabS03LDJhMywzLDAsMSwxLDMtM0EzLjAwMzMsMy4wMDMzLDAsMCwxLDI1LDEyWiIgdHJhbnNmb3JtPSJ0cmFuc2xhdGUoMCAwKSIvPgogIDxyZWN0IGlkPSJfVHJhbnNwYXJlbnRfUmVjdGFuZ2xlXyIgZGF0YS1uYW1lPSImbHQ7VHJhbnNwYXJlbnQgUmVjdGFuZ2xlJmd0OyIgY2xhc3M9ImNscy0xIiB3aWR0aD0iMzIiIGhlaWdodD0iMzIiLz4KPC9zdmc+Cg==;" parent="76zrJTwIecXoBc1lrxkZ-22" vertex="1">
          <mxGeometry x="16" y="6" width="23" height="23" as="geometry" />
        </mxCell>
        <mxCell id="76zrJTwIecXoBc1lrxkZ-25" style="edgeStyle=orthogonalEdgeStyle;rounded=0;orthogonalLoop=1;jettySize=auto;html=1;exitX=0.5;exitY=1;exitDx=0;exitDy=0;" parent="76zrJTwIecXoBc1lrxkZ-22" edge="1">
          <mxGeometry relative="1" as="geometry">
            <mxPoint x="361" y="169.07000000000002" as="sourcePoint" />
            <mxPoint x="361" y="169.07000000000002" as="targetPoint" />
          </mxGeometry>
        </mxCell>
        <object label="Billing&#xa;Reports" release="v2.1.2" generation="2.0" id="76zrJTwIecXoBc1lrxkZ-26">
          <mxCell style="shape=image;aspect=fixed;image=data:image/svg+xml,PD94bWwgdmVyc2lvbj0iMS4wIiBlbmNvZGluZz0iVVRGLTgiPz4KPHN2ZyB3aWR0aD0iNDhweCIgaGVpZ2h0PSI0OXB4IiB2aWV3Qm94PSIwIDAgNDggNDkiIHZlcnNpb249IjEuMSIgeG1sbnM9Imh0dHA6Ly93d3cudzMub3JnLzIwMDAvc3ZnIiB4bWxuczp4bGluaz0iaHR0cDovL3d3dy53My5vcmcvMTk5OS94bGluayI+CiAgICA8dGl0bGU+ZmlsZS1zeXN0ZW08L3RpdGxlPgogICAgPGcgaWQ9IlYyLUljb25zIiBzdHJva2U9Im5vbmUiIHN0cm9rZS13aWR0aD0iMSIgZmlsbD0ibm9uZSIgZmlsbC1ydWxlPSJldmVub2RkIj4KICAgICAgICA8ZyBpZD0iSUJNLS8tQ2xvdWQtLy1TdG9yYWdlIiB0cmFuc2Zvcm09InRyYW5zbGF0ZSgtNDY1LCAtNDgpIj4KICAgICAgICAgICAgPGcgaWQ9ImZpbGUtc3lzdGVtIiB0cmFuc2Zvcm09InRyYW5zbGF0ZSg0NjUsIDQ4LjkzNjIpIj4KICAgICAgICAgICAgICAgIDxnIGlkPSJkYXRhLWJsb2IiIGZpbGw9IiMwRjYyRkUiPgogICAgICAgICAgICAgICAgICAgIDxwb2x5Z29uIGlkPSJGaWxsLTQiIHBvaW50cz0iMCA0OCA0OCA0OCA0OCAwIDAgMCI+PC9wb2x5Z29uPgogICAgICAgICAgICAgICAgPC9nPgogICAgICAgICAgICAgICAgPGcgaWQ9InZvbHVtZS0tZmlsZS1zdG9yYWdlIiB0cmFuc2Zvcm09InRyYW5zbGF0ZSgxMS41LCAxMi4wNjM4KSI+CiAgICAgICAgICAgICAgICAgICAgPHBhdGggZD0iTTE5LjI4MDI1LDEyLjk2OTc1IEwxNS41MzAyNSw5LjIxOTc1IEMxNS4zODk2MzA1LDkuMDc5MDg3OTcgMTUuMTk4ODk2MSw5IDE1LDkgTDEwLjUsOSBDOS42NzE1NzI4OCw5IDksOS42NzE1NzI4OCA5LDEwLjUgTDksMjEgQzksMjEuODI4NDI3MSA5LjY3MTU3Mjg4LDIyLjUgMTAuNSwyMi41IEwxOCwyMi41IEMxOC44Mjg0MjcxLDIyLjUgMTkuNSwyMS44Mjg0MjcxIDE5LjUsMjEgTDE5LjUsMTMuNSBDMTkuNSwxMy4zMDExMDM5IDE5LjQyMDkxMiwxMy4xMTAzNjk1IDE5LjI4MDI1LDEyLjk2OTc1IFogTTE3LjY4OTI3NSwxMy41IEwxNSwxMy41IEwxNSwxMC44MTA1NzUgTDE3LjY4OTI3NSwxMy41IFogTTEwLjUsMjEgTDEwLjUsMTAuNSBMMTMuNSwxMC41IEwxMy41LDEzLjUgQzEzLjUsMTQuMzI4NDI3MSAxNC4xNzE1NzI5LDE1IDE1LDE1IEwxOCwxNSBMMTgsMjEgTDEwLjUsMjEgWiIgaWQ9IlNoYXBlIiBmaWxsPSIjRkZGRkZGIiBmaWxsLXJ1bGU9Im5vbnplcm8iPjwvcGF0aD4KICAgICAgICAgICAgICAgICAgICA8cGF0aCBkPSJNNiwyMC4yNDk5OTQxIEwzLDIwLjI0OTk5NDEgQzIuMTcxOTY2OTUsMjAuMjQ5MDQ5NCAxLjUwMDk1MDYsMTkuNTc4MDMzMSAxLjUsMTguNzQ5OTk0MSBMMS41LDMuNzQ5OTk0MTQgQzEuNTAwOTUwNiwyLjkyMTk2Njk1IDIuMTcxOTY2OTUsMi4yNTA5NTA2IDMsMi4yNDk5OTQxNCBMOC42ODkyNzUsMi4yNDk5OTQxNCBDOS4wODczNTY2OSwyLjI0ODg4NDA2IDkuNDY5MzI5MzMsMi40MDcxMjMzIDkuNzUsMi42ODk0MjUgTDEyLjMxMDcyNSw1LjI0OTk5NDE0IEwyMSw1LjI0OTk5NDE0IEMyMS44MjgwMzMxLDUuMjUwOTUwNiAyMi40OTkwNDk0LDUuOTIxOTY2OTUgMjIuNSw2Ljc0OTk5NDE0IEwyMi41LDEyLjc0OTk5NDEgTDIxLDEyLjc0OTk5NDEgTDIxLDYuNzQ5OTk0MTQgTDExLjY4OTI3NSw2Ljc0OTk5NDE0IEw4LjY4OTI3NSwzLjc0OTk5NDE0IEwzLDMuNzQ5OTk0MTQgTDMsMTguNzQ5OTk0MSBMNiwxOC43NDk5OTQxIEw2LDIwLjI0OTk5NDEgWiIgaWQ9IlBhdGgiIGZpbGw9IiNGRkZGRkYiIGZpbGwtcnVsZT0ibm9uemVybyI+PC9wYXRoPgogICAgICAgICAgICAgICAgICAgIDxyZWN0IGlkPSJfVHJhbnNwYXJlbnRfUmVjdGFuZ2xlXyIgeD0iMCIgeT0iMCIgd2lkdGg9IjI0IiBoZWlnaHQ9IjI0Ij48L3JlY3Q+CiAgICAgICAgICAgICAgICA8L2c+CiAgICAgICAgICAgIDwvZz4KICAgICAgICA8L2c+CiAgICA8L2c+Cjwvc3ZnPg==;fontFamily=IBM Plex Sans;fontSize=14;labelPosition=center;verticalLabelPosition=top;align=center;verticalAlign=bottom;spacingTop=-7;" parent="76zrJTwIecXoBc1lrxkZ-22" vertex="1">
            <mxGeometry x="281" y="39.27000000000001" width="48" height="48" as="geometry" />
          </mxCell>
        </object>
        <mxCell id="76zrJTwIecXoBc1lrxkZ-27" value="" style="rounded=0;whiteSpace=wrap;html=1;strokeColor=none;fillColor=#1192E8;" parent="76zrJTwIecXoBc1lrxkZ-1" vertex="1">
          <mxGeometry width="7" height="37" as="geometry" />
        </mxCell>
        <mxCell id="76zrJTwIecXoBc1lrxkZ-28" value="IBM Cloud" style="text;html=1;strokeColor=none;fillColor=none;align=left;verticalAlign=middle;whiteSpace=wrap;rounded=0;fontFamily=IBM Plex Sans;fontSource=fonts%2FIBMPlexSans-Regular.woff;fontSize=14;" parent="76zrJTwIecXoBc1lrxkZ-1" vertex="1">
          <mxGeometry x="51" y="8" width="163" height="20" as="geometry" />
        </mxCell>
        <mxCell id="76zrJTwIecXoBc1lrxkZ-29" value="" style="shape=image;aspect=fixed;image=data:image/svg+xml,PD94bWwgdmVyc2lvbj0iMS4wIiBlbmNvZGluZz0iVVRGLTgiPz4KPHN2ZyB3aWR0aD0iMzNweCIgaGVpZ2h0PSIzMXB4IiB2aWV3Qm94PSIwIDAgMzMgMzEiIHZlcnNpb249IjEuMSIgeG1sbnM9Imh0dHA6Ly93d3cudzMub3JnLzIwMDAvc3ZnIiB4bWxuczp4bGluaz0iaHR0cDovL3d3dy53My5vcmcvMTk5OS94bGluayI+CiAgICA8IS0tIEdlbmVyYXRvcjogU2tldGNoIDUzICg3MjUyMCkgLSBodHRwczovL3NrZXRjaGFwcC5jb20gLS0+CiAgICA8dGl0bGU+SUJNIENsb3VkIEJsYWNrPC90aXRsZT4KICAgIDxkZXNjPkNyZWF0ZWQgd2l0aCBTa2V0Y2guPC9kZXNjPgogICAgPGcgaWQ9IlBhZ2UtMSIgc3Ryb2tlPSJub25lIiBzdHJva2Utd2lkdGg9IjEiIGZpbGw9Im5vbmUiIGZpbGwtcnVsZT0iZXZlbm9kZCI+CiAgICAgICAgPGcgaWQ9IklCTS1DbG91ZC1CbGFjayIgdHJhbnNmb3JtPSJ0cmFuc2xhdGUoMC43ODQ3MjIsIDAuNTAwMTI1KSIgZmlsbD0iIzAwMDAwMCI+CiAgICAgICAgICAgIDxwYXRoIGQ9Ik0yNy4xMDIxLDI3LjAxMDYgQzI1Ljg3MDEsMjcuODc5NiAyNC4zNjExLDI4LjI2NzYgMjIuODUzMSwyOC4yNjc2IEw3LjAwNDEsMjguMjY3NiBDNC4xMTIxLDI4LjI3NDYgMS43NjIxLDI1LjkzNDYgMS43NTUxLDIzLjA0MjYgQzEuNzQ5MSwyMC40MTA2IDMuNjk3MSwxOC4xODM2IDYuMzA1MSwxNy44Mzg2IEM2LjQxMTEsMTkuMTYxNiA2Ljc4NzEsMjAuNDQ5NiA3LjQwOTEsMjEuNjIxNiBDNy41OTUxLDIxLjk5MTYgOC4wNDYxLDIyLjE0MDYgOC40MTYxLDIxLjk1NDYgQzguNzg2MSwyMS43Njc2IDguOTM1MSwyMS4zMTc2IDguNzQ4MSwyMC45NDc2IEw4LjczMDEsMjAuOTEyNiBDNy4xMzIxLDE3LjkzNTYgNy40MjkxLDE0LjIxNzYgOS42NzIxLDExLjY4OTYgQzEzLjQ4NjEsNy4zOTI2IDE5Ljc4NzEsOC4wNTI2IDIyLjc1NzEsMTIuMjgxNiBDMjAuMzM0MSwxMi4zNDc2IDE4LjA0NzEsMTMuNDE1NiAxNi40NDExLDE1LjIzMDYgQzE2LjE2MTEsMTUuNTM1NiAxNi4xODExLDE2LjAxMDYgMTYuNDg1MSwxNi4yOTA2IEMxNi43ODkxLDE2LjU3MTYgMTcuMjY0MSwxNi41NTI2IDE3LjU0NTEsMTYuMjQ3NiBMMTcuNTY2MSwxNi4yMjI2IEMxOS41OTUxLDEzLjkyMzYgMjIuODg0MSwxMy4wNTI2IDI1LjcwMzEsMTQuMjYzNiBDMzEuMTY1MSwxNi42MDk2IDMxLjgxMDEsMjMuNjkyNiAyNy4xMDIxLDI3LjAxMDYgTTI0LjU4NTEsMTIuOTE3NiBDMjIuMDU0MSw4LjE3NTYgMTYuMTU5MSw2LjM4MjYgMTEuNDE2MSw4LjkxMzYgQzguNDY1MSwxMC40ODg2IDYuNTI5MSwxMy40Njg2IDYuMjkwMSwxNi44MDY2IEMyLjU4NDEsMTcuMjA0NiAtMC4wOTc5LDIwLjUzMjYgMC4zMDExLDI0LjIzOTYgQzAuNjY5MSwyNy42NjU2IDMuNTU5MSwzMC4yNjM2IDcuMDA0MSwzMC4yNjc2IEwyMy4wMDQxLDMwLjI2NzYgQzI3LjgzNTEsMzAuMjcwNiAzMS43NTMxLDI2LjM1NzYgMzEuNzU2MSwyMS41MjY2IEMzMS43NTkxLDE3LjMwMTYgMjguNzQxMSwxMy42Nzg2IDI0LjU4NTEsMTIuOTE3NiIgaWQ9IkZpbGwtMSI+PC9wYXRoPgogICAgICAgICAgICA8ZyBpZD0iR3JvdXAtNSIgdHJhbnNmb3JtPSJ0cmFuc2xhdGUoMjcuMDAwMDAwLCA4LjI2NzcwMCkiPgogICAgICAgICAgICAgICAgPHBhdGggZD0iTTQuOTAyOCwwLjkxOTcgQzQuNjkzOCwwLjU1NjcgNC4yMjk4LDAuNDMyNyAzLjg2NjgsMC42NDE3IEMzLjg2NjgsMC42NDE3IDMuODY2OCwwLjY0MTcgMy44NjY4LDAuNjQyNyBMMC44NDY4LDIuMzg1NyBDMC40Nzg4LDIuNTg2NyAwLjM0MzgsMy4wNDc3IDAuNTQ0OCwzLjQxNTcgQzAuNzQ1OCwzLjc4MzcgMS4yMDY4LDMuOTE4NyAxLjU3NDgsMy43MTc3IEMxLjU4NDgsMy43MTE3IDEuNTk0OCwzLjcwNTcgMS42MDQ4LDMuNjk5NyBMNC42MjQ4LDEuOTU2NyBDNC45ODc4LDEuNzQ2NyA1LjExMTgsMS4yODI3IDQuOTAyOCwwLjkxOTciIGlkPSJGaWxsLTMiPjwvcGF0aD4KICAgICAgICAgICAgPC9nPgogICAgICAgICAgICA8cGF0aCBkPSJNMjIuNjgxMiw2LjgwMjYgQzIzLjA0MzIsNy4wMTI2IDIzLjUwNzIsNi44ODg2IDIzLjcxNzIsNi41MjU2IEwyMy43MTcyLDYuNTI1NiBMMjUuNDYxMiwzLjUwNTYgQzI1LjY2ODIsMy4xNDA2IDI1LjU0MDIsMi42Nzc2IDI1LjE3NjIsMi40NzA2IEMyNC44MTUyLDIuMjY2NiAyNC4zNTcyLDIuMzg4NiAyNC4xNDcyLDIuNzQ2NiBMMjIuNDAzMiw1Ljc2NjYgQzIyLjE5NDIsNi4xMjk2IDIyLjMxODIsNi41OTM2IDIyLjY4MTIsNi44MDI2IiBpZD0iRmlsbC02Ij48L3BhdGg+CiAgICAgICAgICAgIDxwYXRoIGQ9Ik0xNi4wMDQ0LDUuMDE0MSBDMTYuNDIzNCw1LjAxNDEgMTYuNzYzNCw0LjY3NDEgMTcuMzM1NCw0LjI1NTEgTDE3LjMzNTQsMC43NjcxIEMxNi43Njg0LDAuMzQ4MSAxNi40MzI0LDAuMDA1MSAxNi4wMTM0LDAuMDAwMSBDMTUuNTk0NCwtMC4wMDQ5IDE1LjI1MTQsMC4zMzExIDE1LjMzNTQsMC43NTAxIEwxNS4zMzU0LDAuNzY3MSBMMTUuMzM1NCw0LjI1NTEgQzE1LjI0NjQsNC42NzQxIDE1LjU4NTQsNS4wMTQxIDE2LjAwNDQsNS4wMTQxIiBpZD0iRmlsbC04Ij48L3BhdGg+CiAgICAgICAgICAgIDxwYXRoIGQ9Ik04LjI5Miw2LjUyNDggQzguNTA0LDYuODg1OCA4Ljk2OSw3LjAwNjggOS4zMzEsNi43OTQ4IEM5LjY4OCw2LjU4NDggOS44MTEsNi4xMjY4IDkuNjA2LDUuNzY1OCBMNy44NjIsMi43NDU4IEM3LjY1NSwyLjM4MTggNy4xOTIsMi4yNTM4IDYuODI4LDIuNDYwOCBDNi40NjMsMi42Njc4IDYuMzM1LDMuMTMwOCA2LjU0MiwzLjQ5NDggQzYuNTQ0LDMuNDk4OCA2LjU0NiwzLjUwMTggNi41NDgsMy41MDQ4IEw4LjI5Miw2LjUyNDggWiIgaWQ9IkZpbGwtMTAiPjwvcGF0aD4KICAgICAgICAgICAgPGcgaWQ9Ikdyb3VwLTE0IiB0cmFuc2Zvcm09InRyYW5zbGF0ZSgwLjAwMDAwMCwgOC4yNjc3MDApIj4KICAgICAgICAgICAgICAgIDxwYXRoIGQ9Ik00LjE2MzEsMi4zODYgTDEuMTQzMSwwLjY0MiBDMC43ODIxLDAuNDMgMC4zMTcxLDAuNTUxIDAuMTA0MSwwLjkxMiBDLTAuMTA3OSwxLjI3MyAwLjAxMzEsMS43MzkgMC4zNzQxLDEuOTUgQzAuMzc4MSwxLjk1MiAwLjM4MTEsMS45NTQgMC4zODQxLDEuOTU2IEwzLjQwNTEsMy43IEMzLjc2NjEsMy45MTIgNC4yMzExLDMuNzkxIDQuNDQzMSwzLjQzIEM0LjY1NTEsMy4wNjkgNC41MzUxLDIuNjA0IDQuMTczMSwyLjM5MiBDNC4xNzAxLDIuMzkgNC4xNjYxLDIuMzg4IDQuMTYzMSwyLjM4NiBaIiBpZD0iRmlsbC0xMiI+PC9wYXRoPgogICAgICAgICAgICA8L2c+CiAgICAgICAgPC9nPgogICAgPC9nPgo8L3N2Zz4=;" parent="76zrJTwIecXoBc1lrxkZ-1" vertex="1">
          <mxGeometry x="20" y="7" width="21" height="19.73" as="geometry" />
        </mxCell>
        <mxCell id="76zrJTwIecXoBc1lrxkZ-30" style="edgeStyle=orthogonalEdgeStyle;rounded=0;orthogonalLoop=1;jettySize=auto;html=1;exitX=0.5;exitY=1;exitDx=0;exitDy=0;entryX=0.5;entryY=0;entryDx=0;entryDy=0;" parent="76zrJTwIecXoBc1lrxkZ-1" source="76zrJTwIecXoBc1lrxkZ-26" target="76zrJTwIecXoBc1lrxkZ-11" edge="1">
          <mxGeometry relative="1" as="geometry">
            <mxPoint x="444.67" y="116.53999999999998" as="sourcePoint" />
            <mxPoint x="444.9700000000002" y="248.27" as="targetPoint" />
          </mxGeometry>
        </mxCell>
        <mxCell id="76zrJTwIecXoBc1lrxkZ-31" value="&lt;font data-font-src=&quot;fonts/IBMPlexSans-Regular.woff&quot; face=&quot;IBM Plex Sans&quot;&gt;WRITE&lt;/font&gt;" style="edgeLabel;html=1;align=center;verticalAlign=middle;resizable=0;points=[];labelBackgroundColor=none;" parent="76zrJTwIecXoBc1lrxkZ-30" vertex="1" connectable="0">
          <mxGeometry x="-0.3254" relative="1" as="geometry">
            <mxPoint x="19" y="-23" as="offset" />
          </mxGeometry>
        </mxCell>
        <mxCell id="76zrJTwIecXoBc1lrxkZ-32" value="" style="rounded=0;whiteSpace=wrap;html=1;strokeColor=none;fillColor=#FA4D56;fontFamily=IBM Plex Sans;fontSource=fonts%2FIBMPlexSans-Regular.woff;fontSize=14;" parent="76zrJTwIecXoBc1lrxkZ-1" vertex="1">
          <mxGeometry x="580" y="37.27" width="7" height="37" as="geometry" />
        </mxCell>
        <mxCell id="76zrJTwIecXoBc1lrxkZ-33" value="" style="rounded=0;whiteSpace=wrap;html=1;fontFamily=IBM Plex Sans;fontSource=fonts%2FIBMPlexSans-Regular.woff;fontSize=14;fillColor=none;spacingBottom=-28;spacingTop=0;labelPosition=-100;verticalLabelPosition=top;align=center;verticalAlign=bottom;spacingLeft=9;spacing=0;expand=0;recursiveResize=0;spacingRight=0;container=1;collapsible=0;strokeColor=#FA4D56;strokeWidth=1;" parent="76zrJTwIecXoBc1lrxkZ-1" vertex="1">
          <mxGeometry x="580" y="37" width="170" height="423" as="geometry">
            <mxRectangle width="670" as="alternateBounds" />
          </mxGeometry>
        </mxCell>
        <mxCell id="76zrJTwIecXoBc1lrxkZ-34" value="Identity &amp;amp; Access Management" style="text;html=1;strokeColor=none;fillColor=none;align=left;verticalAlign=middle;whiteSpace=wrap;rounded=0;fontFamily=IBM Plex Sans;fontSource=fonts%2FIBMPlexSans-Regular.woff;fontSize=14;" parent="76zrJTwIecXoBc1lrxkZ-33" vertex="1">
          <mxGeometry x="50.33" y="8" width="129.67" height="20" as="geometry" />
        </mxCell>
        <mxCell id="76zrJTwIecXoBc1lrxkZ-35" value="" style="shape=image;aspect=fixed;image=data:image/svg+xml,PHN2ZyBpZD0iaWNvbiIgeG1sbnM9Imh0dHA6Ly93d3cudzMub3JnLzIwMDAvc3ZnIiB3aWR0aD0iMzIiIGhlaWdodD0iMzIiIHZpZXdCb3g9IjAgMCAzMiAzMiI+CiAgPGRlZnM+CiAgICA8c3R5bGU+CiAgICAgIC5jbHMtMSB7CiAgICAgICAgZmlsbDogbm9uZTsKICAgICAgfQogICAgPC9zdHlsZT4KICA8L2RlZnM+CiAgPHBhdGggZD0iTTE1LDIwSDlhMywzLDAsMCwwLTMsM3YySDhWMjNhMSwxLDAsMCwxLDEtMWg2YTEsMSwwLDAsMSwxLDF2MmgyVjIzQTMsMywwLDAsMCwxNSwyMFoiIHRyYW5zZm9ybT0idHJhbnNsYXRlKDAgMCkiLz4KICA8cGF0aCBkPSJNMTIsMTlhNCw0LDAsMSwwLTQtNEE0LDQsMCwwLDAsMTIsMTlabTAtNmEyLDIsMCwxLDEtMiwyQTIsMiwwLDAsMSwxMiwxM1oiIHRyYW5zZm9ybT0idHJhbnNsYXRlKDAgMCkiLz4KICA8cGF0aCBkPSJNMjgsMTl2OUg0VjhIMTZWNkg0QTIsMiwwLDAsMCwyLDhWMjhhMiwyLDAsMCwwLDIsMkgyOGEyLDIsMCwwLDAsMi0yVjE5WiIgdHJhbnNmb3JtPSJ0cmFuc2xhdGUoMCAwKSIvPgogIDxyZWN0IHg9IjIwIiB5PSIxOSIgd2lkdGg9IjYiIGhlaWdodD0iMiIvPgogIDxyZWN0IHg9IjIyIiB5PSIyMyIgd2lkdGg9IjQiIGhlaWdodD0iMiIvPgogIDxwYXRoIGQ9Ik0zMiwxMFY4SDI5Ljg5ODlhNC45Njc4LDQuOTY3OCwwLDAsMC0uNzMxOS0xLjc1MjlsMS40OS0xLjQ5LTEuNDE0LTEuNDE0LTEuNDksMS40OUE0Ljk2NzgsNC45Njc4LDAsMCwwLDI2LDQuMTAxMVYySDI0VjQuMTAxMWE0Ljk2NzgsNC45Njc4LDAsMCwwLTEuNzUyOS43MzE5bC0xLjQ5LTEuNDktMS40MTQsMS40MTQsMS40OSwxLjQ5QTQuOTY3OCw0Ljk2NzgsMCwwLDAsMjAuMTAxMSw4SDE4djJoMi4xMDExYTQuOTY3OCw0Ljk2NzgsMCwwLDAsLjczMTksMS43NTI5bC0xLjQ5LDEuNDksMS40MTQsMS40MTQsMS40OS0xLjQ5QTQuOTY3OCw0Ljk2NzgsMCwwLDAsMjQsMTMuODk4OVYxNmgyVjEzLjg5ODlhNC45Njc4LDQuOTY3OCwwLDAsMCwxLjc1MjktLjczMTlsMS40OSwxLjQ5LDEuNDE0LTEuNDE0LTEuNDktMS40OUE0Ljk2NzgsNC45Njc4LDAsMCwwLDI5Ljg5ODksMTBabS03LDJhMywzLDAsMSwxLDMtM0EzLjAwMzMsMy4wMDMzLDAsMCwxLDI1LDEyWiIgdHJhbnNmb3JtPSJ0cmFuc2xhdGUoMCAwKSIvPgogIDxyZWN0IGlkPSJfVHJhbnNwYXJlbnRfUmVjdGFuZ2xlXyIgZGF0YS1uYW1lPSImbHQ7VHJhbnNwYXJlbnQgUmVjdGFuZ2xlJmd0OyIgY2xhc3M9ImNscy0xIiB3aWR0aD0iMzIiIGhlaWdodD0iMzIiLz4KPC9zdmc+Cg==;" parent="76zrJTwIecXoBc1lrxkZ-33" vertex="1">
          <mxGeometry x="16" y="6" width="23" height="23" as="geometry" />
        </mxCell>
        <mxCell id="76zrJTwIecXoBc1lrxkZ-36" style="edgeStyle=orthogonalEdgeStyle;rounded=0;orthogonalLoop=1;jettySize=auto;html=1;exitX=0.5;exitY=1;exitDx=0;exitDy=0;" parent="76zrJTwIecXoBc1lrxkZ-33" edge="1">
          <mxGeometry relative="1" as="geometry">
            <mxPoint x="99.17" y="308.27" as="sourcePoint" />
            <mxPoint x="99.17" y="308.27" as="targetPoint" />
          </mxGeometry>
        </mxCell>
        <mxCell id="76zrJTwIecXoBc1lrxkZ-37" value="S2S Auth" style="shape=image;aspect=fixed;image=data:image/svg+xml,PHN2ZyBpZD0iTGF5ZXJfMSIgZGF0YS1uYW1lPSJMYXllciAxIiB4bWxucz0iaHR0cDovL3d3dy53My5vcmcvMjAwMC9zdmciIHhtbG5zOnhsaW5rPSJodHRwOi8vd3d3LnczLm9yZy8xOTk5L3hsaW5rIiB2aWV3Qm94PSIwIDAgNDkgNDkiPjxkZWZzPjxzdHlsZT4uY2xzLTF7ZmlsbDojZmZmO2ZpbGwtcnVsZTpldmVub2RkO30uY2xzLTJ7ZmlsbDojZmE0ZDU2O30uY2xzLTN7ZmlsbDpub25lO30uY2xzLTR7bWFzazp1cmwoI21hc2spO308L3N0eWxlPjxtYXNrIGlkPSJtYXNrIiB4PSIxNy45MiIgeT0iMTUuMjgiIHdpZHRoPSIxMy4xNyIgaGVpZ2h0PSIxOC40MyIgbWFza1VuaXRzPSJ1c2VyU3BhY2VPblVzZSI+PGcgaWQ9Im1hc2stMiI+PHBvbHlnb24gaWQ9InBhdGgtMSIgY2xhc3M9ImNscy0xIiBwb2ludHM9IjE3LjkyIDMzLjcxIDMxLjA4IDMzLjcxIDMxLjA4IDE1LjI4IDE3LjkyIDE1LjI4IDE3LjkyIDMzLjcxIi8+PC9nPjwvbWFzaz48L2RlZnM+PHJlY3QgY2xhc3M9ImNscy0yIiB4PSIwLjUiIHk9IjAuNSIgd2lkdGg9IjQ4IiBoZWlnaHQ9IjQ4IiByeD0iOCIvPjxyZWN0IGNsYXNzPSJjbHMtMyIgeD0iMTQuNSIgeT0iMTQuNSIgd2lkdGg9IjIwIiBoZWlnaHQ9IjIwIi8+PHBhdGggaWQ9IkZpbGwtMSIgY2xhc3M9ImNscy0xIiBkPSJNMjQuNjgsMjQuMzZhMS4zMiwxLjMyLDAsMSwxLTEuMzIsMS4zMiwxLjMyLDEuMzIsMCwwLDEsMS4zMi0xLjMybTAsMy45NWEyLjYzLDIuNjMsMCwxLDAtMi42My0yLjYzLDIuNjMsMi42MywwLDAsMCwyLjYzLDIuNjMiLz48ZyBjbGFzcz0iY2xzLTQiPjxwb2x5Z29uIGlkPSJGaWxsLTMiIGNsYXNzPSJjbHMtMSIgcG9pbnRzPSIyMy4xOCAxOS4yMyAyNS44MiAxOS4yMyAyNS44MiAxNy45MSAyMy4xOCAxNy45MSAyMy4xOCAxOS4yMyIvPjwvZz48ZyBjbGFzcz0iY2xzLTQiPjxwYXRoIGlkPSJGaWxsLTUiIGNsYXNzPSJjbHMtMSIgZD0iTTI4LjQ1LDMyLjM5VjMxLjA4YTIsMiwwLDAsMC0yLTJIMjIuNTNhMiwyLDAsMCwwLTIsMnYxLjMxSDE5LjIzVjE2LjU5SDI5Ljc3djE1LjhabS0xLjMyLDBIMjEuODdWMzEuMDhhLjY1LjY1LDAsMCwxLC42Ni0uNjZoMy45NGEuNjUuNjUsMCwwLDEsLjY2LjY2Wm0yLjY0LTE3LjExSDE5LjIzYTEuMzEsMS4zMSwwLDAsMC0xLjMxLDEuMzF2MTUuOGExLjMyLDEuMzIsMCwwLDAsMS4zMSwxLjMySDI5Ljc3YTEuMzIsMS4zMiwwLDAsMCwxLjMxLTEuMzJWMTYuNTlhMS4zMSwxLjMxLDAsMCwwLTEuMzEtMS4zMVoiLz48L2c+PC9zdmc+;fontFamily=IBM Plex Sans;fontSource=fonts%2FIBMPlexSans-Regular.woff;fontSize=14;labelPosition=center;verticalLabelPosition=bottom;align=center;verticalAlign=top;spacingTop=-7;" parent="76zrJTwIecXoBc1lrxkZ-33" vertex="1">
          <mxGeometry x="60" y="39.27" width="48" height="48" as="geometry" />
        </mxCell>
        <mxCell id="76zrJTwIecXoBc1lrxkZ-38" value="Cloudability&#xa;Service Id" style="shape=image;aspect=fixed;image=data:image/svg+xml,PD94bWwgdmVyc2lvbj0iMS4wIiBlbmNvZGluZz0iVVRGLTgiPz4KPHN2ZyB3aWR0aD0iNDlweCIgaGVpZ2h0PSI1MHB4IiB2aWV3Qm94PSIwIDAgNDkgNTAiIHZlcnNpb249IjEuMSIgeG1sbnM9Imh0dHA6Ly93d3cudzMub3JnLzIwMDAvc3ZnIiB4bWxuczp4bGluaz0iaHR0cDovL3d3dy53My5vcmcvMTk5OS94bGluayI+CiAgICA8dGl0bGU+U2VydmljZSBJRCBBY3RvciB2MiBJY29uPC90aXRsZT4KICAgIDxnIGlkPSJQYWdlLTEiIHN0cm9rZT0ibm9uZSIgc3Ryb2tlLXdpZHRoPSIxIiBmaWxsPSJub25lIiBmaWxsLXJ1bGU9ImV2ZW5vZGQiPgogICAgICAgIDxnIGlkPSJ2Mi00OHg0OCIgdHJhbnNmb3JtPSJ0cmFuc2xhdGUoLTI0NjUuMDAwMDAwLCAtNjA4LjAwMDAwMCkiPgogICAgICAgICAgICA8ZyBpZD0iU2VydmljZS1JRC1BY3Rvci12Mi1JY29uIiB0cmFuc2Zvcm09InRyYW5zbGF0ZSgyNDY1LjQ5NzMwMCwgNjA5LjAwMDAwMCkiPgogICAgICAgICAgICAgICAgPGcgaWQ9IlVzZXJzLU11bHRpcGxpY2l0eS4tdjItSWNvbi1Db3B5Ij4KICAgICAgICAgICAgICAgICAgICA8cGF0aCBkPSJNMCwyNCBDMCwxMC43NDUgMTAuNzQ1LDAgMjQsMCBDMzcuMjU1LDAgNDgsMTAuNzQ1IDQ4LDI0IEM0OCwzNy4yNTUgMzcuMjU1LDQ4IDI0LDQ4IEMxMC43NDUsNDggMCwzNy4yNTUgMCwyNCBaIiBpZD0iRmlsbC0zIiBmaWxsPSIjMDAwMDAwIj48L3BhdGg+CiAgICAgICAgICAgICAgICAgICAgPHBhdGggZD0iTTI0LDQ4IEwyNCw0OCBDMTAuNzQ1LDQ4IDAsMzcuMjU1IDAsMjQgTDAsMjQgQzAsMTAuNzQ1IDEwLjc0NSwwIDI0LDAgTDI0LDAgQzM3LjI1NSwwIDQ4LDEwLjc0NSA0OCwyNCBMNDgsMjQgQzQ4LDM3LjI1NSAzNy4yNTUsNDggMjQsNDggWiIgaWQ9IlN0cm9rZS01IiBzdHJva2U9IiMwMDAwMDAiPjwvcGF0aD4KICAgICAgICAgICAgICAgIDwvZz4KICAgICAgICAgICAgICAgIDxnIGlkPSJzZXJ2aWNlLWlkKDEpIiB0cmFuc2Zvcm09InRyYW5zbGF0ZSgxMi41MDAwMDAsIDEyLjUwMDAwMCkiPgogICAgICAgICAgICAgICAgICAgIDxwYXRoIGQ9Ik0yMS41NjI1LDE3LjI1IEwyMS41NjI1LDE1LjgxMjUgTDIwLjA1MjQwNjMsMTUuODEyNSBDMTkuOTU4OTY4OCwxNS4zNTQ2NTYyIDE5Ljc3NjQwNjMsMTQuOTI5MTU2MyAxOS41MjYyODEzLDE0LjU1MjUzMTIgTDIwLjU5NzIxODcsMTMuNDgxNTkzOCBMMTkuNTgwOTA2MiwxMi40NjUyODEzIEwxOC41MDk5Njg3LDEzLjUzNjIxODcgQzE4LjEzMzM0MzcsMTMuMjg2MDkzNyAxNy43MDc4NDM4LDEzLjEwMzUzMTIgMTcuMjUsMTMuMDEwMDkzNyBMMTcuMjUsMTEuNSBMMTUuODEyNSwxMS41IEwxNS44MTI1LDEzLjAxMDA5MzcgQzE1LjM1NDY1NjIsMTMuMTAzNTMxMiAxNC45MjkxNTYzLDEzLjI4NjA5MzcgMTQuNTUyNTMxMiwxMy41MzYyMTg3IEwxMy40ODE1OTM4LDEyLjQ2NTI4MTMgTDEyLjQ2NTI4MTMsMTMuNDgxNTkzOCBMMTMuNTM2MjE4NywxNC41NTI1MzEyIEMxMy4yODYwOTM3LDE0LjkyOTE1NjMgMTMuMTAzNTMxMiwxNS4zNTQ2NTYyIDEzLjAxMDA5MzcsMTUuODEyNSBMMTEuNSwxNS44MTI1IEwxMS41LDE3LjI1IEwxMy4wMTAwOTM3LDE3LjI1IEMxMy4xMDM1MzEyLDE3LjcwNzg0MzggMTMuMjg2MDkzNywxOC4xMzMzNDM3IDEzLjUzNjIxODcsMTguNTA5OTY4NyBMMTIuNDY1MjgxMywxOS41ODA5MDYyIEwxMy40ODE1OTM4LDIwLjU5NzIxODcgTDE0LjU1MjUzMTIsMTkuNTI2MjgxMyBDMTQuOTI5MTU2MywxOS43NzY0MDYzIDE1LjM1NDY1NjIsMTkuOTU4OTY4OCAxNS44MTI1LDIwLjA1MjQwNjMgTDE1LjgxMjUsMjEuNTYyNSBMMTcuMjUsMjEuNTYyNSBMMTcuMjUsMjAuMDUyNDA2MyBDMTcuNzA3ODQzOCwxOS45NTg5Njg4IDE4LjEzMzM0MzcsMTkuNzc2NDA2MyAxOC41MDk5Njg3LDE5LjUyNjI4MTMgTDE5LjU4MDkwNjIsMjAuNTk3MjE4NyBMMjAuNTk3MjE4NywxOS41ODA5MDYyIEwxOS41MjYyODEzLDE4LjUwOTk2ODcgQzE5Ljc3NjQwNjMsMTguMTMzMzQzNyAxOS45NTg5Njg4LDE3LjcwNzg0MzggMjAuMDUyNDA2MywxNy4yNSBMMjEuNTYyNSwxNy4yNSBaIE0xNi41MzEyNSwxOC42ODc1IEMxNS4zNDI0Mzc1LDE4LjY4NzUgMTQuMzc1LDE3LjcyMDA2MjUgMTQuMzc1LDE2LjUzMTI1IEMxNC4zNzUsMTUuMzQyNDM3NSAxNS4zNDI0Mzc1LDE0LjM3NSAxNi41MzEyNSwxNC4zNzUgQzE3LjcyMDA2MjUsMTQuMzc1IDE4LjY4NzUsMTUuMzQyNDM3NSAxOC42ODc1LDE2LjUzMTI1IEMxOC42ODc1LDE3LjcyMDA2MjUgMTcuNzIwMDYyNSwxOC42ODc1IDE2LjUzMTI1LDE4LjY4NzUgWiIgaWQ9IlNoYXBlIiBmaWxsPSIjRkZGRkZGIiBmaWxsLXJ1bGU9Im5vbnplcm8iPjwvcGF0aD4KICAgICAgICAgICAgICAgICAgICA8cmVjdCBpZD0iUmVjdGFuZ2xlIiBmaWxsPSIjRkZGRkZGIiBmaWxsLXJ1bGU9Im5vbnplcm8iIHg9IjguNjI1IiB5PSI0LjMxMjUiIHdpZHRoPSIyLjg3NSIgaGVpZ2h0PSIxLjQzNzUiPjwvcmVjdD4KICAgICAgICAgICAgICAgICAgICA8cGF0aCBkPSJNNC4zMTI1LDIwLjEyNSBMNC4zMTI1LDIuODc1IEwxNS44MTI1LDIuODc1IEwxNS44MTI1LDkuMzQzNzUgTDE3LjI1LDkuMzQzNzUgTDE3LjI1LDIuODc1IEMxNy4yNSwyLjA4MjIxODc1IDE2LjYwNTI4MTMsMS40Mzc1IDE1LjgxMjUsMS40Mzc1IEw0LjMxMjUsMS40Mzc1IEMzLjUxOTcxODc1LDEuNDM3NSAyLjg3NSwyLjA4MjIxODc1IDIuODc1LDIuODc1IEwyLjg3NSwyMC4xMjUgQzIuODc1LDIwLjkxNzc4MTMgMy41MTk3MTg3NSwyMS41NjI1IDQuMzEyNSwyMS41NjI1IEwxMC4wNjI1LDIxLjU2MjUgTDEwLjA2MjUsMjAuMTI1IEw0LjMxMjUsMjAuMTI1IFoiIGlkPSJQYXRoIiBmaWxsPSIjRkZGRkZGIiBmaWxsLXJ1bGU9Im5vbnplcm8iPjwvcGF0aD4KICAgICAgICAgICAgICAgICAgICA8cmVjdCBpZD0iX3gzQ19UcmFuc3BhcmVudF9SZWN0YW5nbGVfeDNFX181ODlfIiB4PSIwIiB5PSIwIiB3aWR0aD0iMjMiIGhlaWdodD0iMjMiPjwvcmVjdD4KICAgICAgICAgICAgICAgIDwvZz4KICAgICAgICAgICAgPC9nPgogICAgICAgIDwvZz4KICAgIDwvZz4KPC9zdmc+;fontFamily=IBM Plex Sans;fontSource=fonts%2FIBMPlexSans-Regular.woff;fontSize=14;labelPosition=center;verticalLabelPosition=bottom;align=center;verticalAlign=top;spacingTop=-7;" parent="76zrJTwIecXoBc1lrxkZ-33" vertex="1">
          <mxGeometry x="59.5" y="246.97999999999996" width="49" height="50" as="geometry" />
        </mxCell>
        <object label="Context-based&#xa;Restrictions (CBR)" release="v2.1.2" generation="2.0" id="v_ReZwLUWhPx22aXuJ78-11">
          <mxCell style="shape=image;verticalLabelPosition=bottom;verticalAlign=top;imageAspect=0;aspect=fixed;image=data:image/svg+xml,PHN2ZyB4bWxuczp4bGluaz0iaHR0cDovL3d3dy53My5vcmcvMTk5OS94bGluayIgeG1sbnM9Imh0dHA6Ly93d3cudzMub3JnLzIwMDAvc3ZnIiB2ZXJzaW9uPSIxLjEiIHZpZXdCb3g9IjAgMCA0OCA0OCIgaGVpZ2h0PSI0OHB4IiB3aWR0aD0iNDhweCI+JiN4YTsgICAgPHRpdGxlPnNlY3VyaXR5LXNlcnZpY2VzPC90aXRsZT4mI3hhOyAgICA8ZyBmaWxsLXJ1bGU9ImV2ZW5vZGQiIGZpbGw9Im5vbmUiIHN0cm9rZS13aWR0aD0iMSIgc3Ryb2tlPSJub25lIiBpZD0iVjItSWNvbnMiPiYjeGE7ICAgICAgICA8ZyB0cmFuc2Zvcm09InRyYW5zbGF0ZSgtNjU2LCAtNzcpIiBpZD0iSUJNLS8tQ2xvdWQtLy1TZWN1cml0eSI+JiN4YTsgICAgICAgICAgICA8ZyB0cmFuc2Zvcm09InRyYW5zbGF0ZSg2NTYsIDc3KSIgaWQ9InNlY3VyaXR5LXNlcnZpY2VzIj4mI3hhOyAgICAgICAgICAgICAgICA8cmVjdCBoZWlnaHQ9IjQ4IiB3aWR0aD0iNDgiIHk9IjAiIHg9IjAiIGZpbGw9IiNGQTRENTYiIGlkPSJSZWN0YW5nbGUiLz4mI3hhOyAgICAgICAgICAgICAgICA8cGF0aCBmaWxsLXJ1bGU9Im5vbnplcm8iIGZpbGw9IiNGRkZGRkYiIGlkPSJTaGFwZSIgZD0iTTM0LjUsMzAgTDM0LjUsMjguNSBMMzIuOTI0MTc1LDI4LjUgQzMyLjgyNzQ2NjQsMjguMDMwNTQ2MyAzMi42NDEwODQ3LDI3LjU4NDE2MjMgMzIuMzc1MjUsMjcuMTg1MzI1IEwzMy40OTI3NSwyNi4wNjc4MjUgTDMyLjQzMjI1LDI1LjAwNzMyNSBMMzEuMzE0NzUsMjYuMTI0ODI1IEMzMC45MTU4OTU4LDI1Ljg1ODk1NSAzMC40Njk0ODUyLDI1LjY3MjU0NzQgMzAsMjUuNTc1ODI1IEwzMCwyNCBMMjguNSwyNCBMMjguNSwyNS41NzU4MjUgQzI4LjAzMDU0NjMsMjUuNjcyNTMzNiAyNy41ODQxNjIzLDI1Ljg1ODkxNTMgMjcuMTg1MzI1LDI2LjEyNDc1IEwyNi4wNjc4MjUsMjUuMDA3MjUgTDI1LjAwNzMyNSwyNi4wNjc3NSBMMjYuMTI0ODI1LDI3LjE4NTI1IEMyNS44NTg5NTUsMjcuNTg0MTA0MiAyNS42NzI1NDc0LDI4LjAzMDUxNDggMjUuNTc1ODI1LDI4LjUgTDI0LDI4LjUgTDI0LDMwIEwyNS41NzU4MjUsMzAgQzI1LjY3MjUzMzYsMzAuNDY5NDUzNyAyNS44NTg5MTUzLDMwLjkxNTgzNzcgMjYuMTI0NzUsMzEuMzE0Njc1IEwyNS4wMDcyNSwzMi40MzIxNzUgTDI2LjA2Nzc1LDMzLjQ5MjY3NSBMMjcuMTg1MjUsMzIuMzc1MTc1IEMyNy41ODQxMDQyLDMyLjY0MTA0NSAyOC4wMzA1MTQ4LDMyLjgyNzQ1MjYgMjguNSwzMi45MjQxNzUgTDI4LjUsMzQuNSBMMzAsMzQuNSBMMzAsMzIuOTI0MTc1IEMzMC40Njk0NTM3LDMyLjgyNzQ2NjQgMzAuOTE1ODM3NywzMi42NDEwODQ3IDMxLjMxNDY3NSwzMi4zNzUyNSBMMzIuNDMyMTc1LDMzLjQ5Mjc1IEwzMy40OTI2NzUsMzIuNDMyMjUgTDMyLjM3NTE3NSwzMS4zMTQ3NSBDMzIuNjQxMDQ1LDMwLjkxNTg5NTggMzIuODI3NDUyNiwzMC40Njk0ODUyIDMyLjkyNDE3NSwzMCBMMzQuNSwzMCBaIE0yOS4yNSwzMS41IEMyOC4wMDczNTkzLDMxLjUgMjcsMzAuNDkyNjQwNyAyNywyOS4yNSBDMjcsMjguMDA3MzU5MyAyOC4wMDczNTkzLDI3IDI5LjI1LDI3IEMzMC40OTI2NDA3LDI3IDMxLjUsMjguMDA3MzU5MyAzMS41LDI5LjI1IEMzMS40OTg2MzYsMzAuNDkyMDc1MiAzMC40OTIwNzUyLDMxLjQ5ODYzNiAyOS4yNSwzMS41IEwyOS4yNSwzMS41IFoiLz4mI3hhOyAgICAgICAgICAgICAgICA8cGF0aCBmaWxsLXJ1bGU9Im5vbnplcm8iIGZpbGw9IiNGRkZGRkYiIGlkPSJQYXRoIiBkPSJNMjIuNDk5OTk1MSwzMi4wMDAyNSBMMjAuMDc0MiwzMC43MDY4IEMxNy44NzIzODA0LDI5LjUzNTQ5NTggMTYuNDk3NDI3MiwyNy4yNDM5ODQxIDE2LjQ5OTk5NTEsMjQuNzUgTDE2LjQ5OTk5NTEsMTUgTDMxLjQ5OTk5NTEsMTUgTDMxLjQ5OTk5NTEsMjIuNSBMMzIuOTk5OTk1MSwyMi41IEwzMi45OTk5OTUxLDE1IEMzMi45OTkwNDk0LDE0LjE3MTk2NjkgMzIuMzI4MDMzMSwxMy41MDA5NTA2IDMxLjQ5OTk5NTEsMTMuNSBMMTYuNDk5OTk1MSwxMy41IEMxNS42NzE5NjY5LDEzLjUwMDk1MDYgMTUuMDAwOTUwNiwxNC4xNzE5NjY5IDE0Ljk5OTk5NTEsMTUgTDE0Ljk5OTk5NTEsMjQuNzUgQzE0Ljk5NjY5MDMsMjcuNzk4MDkwMiAxNi42NzcxMDExLDMwLjU5ODc3NDkgMTkuMzY4MTUsMzIuMDMwMjUgTDIyLjQ5OTk5NTEsMzMuNzAwMiBMMjIuNDk5OTk1MSwzMi4wMDAyNSBaIi8+JiN4YTsgICAgICAgICAgICAgICAgPHJlY3QgaGVpZ2h0PSIyNCIgd2lkdGg9IjI0IiB5PSIxMiIgeD0iMTIiIGlkPSJfVHJhbnNwYXJlbnRfUmVjdGFuZ2xlXyIvPiYjeGE7ICAgICAgICAgICAgPC9nPiYjeGE7ICAgICAgICA8L2c+JiN4YTsgICAgPC9nPiYjeGE7PC9zdmc+;fontFamily=IBM Plex Sans;fontSize=14;spacingTop=-7;labelPosition=center;align=center;" vertex="1" parent="76zrJTwIecXoBc1lrxkZ-33">
            <mxGeometry x="61" y="142" width="48" height="48" as="geometry" />
          </mxCell>
        </object>
        <mxCell id="76zrJTwIecXoBc1lrxkZ-39" style="edgeStyle=orthogonalEdgeStyle;rounded=0;orthogonalLoop=1;jettySize=auto;html=1;exitX=0;exitY=0.5;exitDx=0;exitDy=0;strokeColor=#00CC66;" parent="76zrJTwIecXoBc1lrxkZ-1" source="76zrJTwIecXoBc1lrxkZ-38" target="76zrJTwIecXoBc1lrxkZ-11" edge="1">
          <mxGeometry relative="1" as="geometry">
            <mxPoint x="446" y="258.77" as="sourcePoint" />
            <mxPoint x="350" y="270" as="targetPoint" />
            <Array as="points" />
          </mxGeometry>
        </mxCell>
        <mxCell id="76zrJTwIecXoBc1lrxkZ-41" style="edgeStyle=orthogonalEdgeStyle;rounded=0;orthogonalLoop=1;jettySize=auto;html=1;exitX=1;exitY=0.25;exitDx=0;exitDy=0;entryX=0;entryY=0.25;entryDx=0;entryDy=0;strokeColor=#00CC66;" parent="76zrJTwIecXoBc1lrxkZ-1" source="76zrJTwIecXoBc1lrxkZ-26" target="76zrJTwIecXoBc1lrxkZ-37" edge="1">
          <mxGeometry relative="1" as="geometry">
            <mxPoint x="310" y="80.76999999999998" as="sourcePoint" />
            <Array as="points">
              <mxPoint x="390" y="88" />
              <mxPoint x="390" y="88" />
            </Array>
          </mxGeometry>
        </mxCell>
        <mxCell id="76zrJTwIecXoBc1lrxkZ-42" style="edgeStyle=orthogonalEdgeStyle;rounded=0;orthogonalLoop=1;jettySize=auto;html=1;entryX=0;entryY=0.75;entryDx=0;entryDy=0;strokeColor=#00CC66;exitX=1;exitY=0.25;exitDx=0;exitDy=0;" parent="76zrJTwIecXoBc1lrxkZ-1" source="76zrJTwIecXoBc1lrxkZ-11" target="76zrJTwIecXoBc1lrxkZ-37" edge="1">
          <mxGeometry relative="1" as="geometry">
            <mxPoint x="400" y="263" as="sourcePoint" />
            <Array as="points">
              <mxPoint x="430" y="297" />
              <mxPoint x="430" y="112" />
            </Array>
          </mxGeometry>
        </mxCell>
        <mxCell id="v_ReZwLUWhPx22aXuJ78-9" value="CBR" style="sketch=0;pointerEvents=1;shadow=0;dashed=0;html=1;strokeColor=none;fillColor=#505050;labelPosition=center;verticalLabelPosition=bottom;verticalAlign=top;outlineConnect=0;align=center;shape=mxgraph.office.security.lock_protected;" vertex="1" parent="76zrJTwIecXoBc1lrxkZ-1">
          <mxGeometry x="310" y="143" width="18" height="24.63" as="geometry" />
        </mxCell>
        <mxCell id="76zrJTwIecXoBc1lrxkZ-43" value="" style="rounded=0;whiteSpace=wrap;html=1;fontFamily=IBM Plex Sans;fontSource=fonts%2FIBMPlexSans-Regular.woff;fontSize=14;spacingBottom=-28;spacingTop=0;labelPosition=-100;verticalLabelPosition=top;align=center;verticalAlign=bottom;spacingLeft=9;spacing=0;expand=0;recursiveResize=0;spacingRight=0;container=1;collapsible=0;strokeColor=#FF9900;fillColor=none;" parent="1" vertex="1">
          <mxGeometry x="880" y="598" width="780" height="110" as="geometry">
            <mxRectangle width="670" as="alternateBounds" />
          </mxGeometry>
        </mxCell>
        <mxCell id="76zrJTwIecXoBc1lrxkZ-44" value="" style="rounded=0;whiteSpace=wrap;html=1;strokeColor=none;fillColor=#FF9900;" parent="76zrJTwIecXoBc1lrxkZ-43" vertex="1">
          <mxGeometry width="7" height="37" as="geometry" />
        </mxCell>
        <mxCell id="76zrJTwIecXoBc1lrxkZ-45" value="" style="shape=image;verticalLabelPosition=bottom;labelBackgroundColor=default;verticalAlign=top;aspect=fixed;imageAspect=0;image=data:image/png,iVBORw0KGgoAAAANSUhEUgAAAbgAAAByCAMAAAAWEDTnAAAAmVBMVEX///8QOV4ANFsINlwAMFkALFf3+foALlgAMlr7/f3u8fTBytMAJ1MALVhSbIdFX3slSmwvT25/j6Hp7fEAI1GisL1Zc42rtsPX3+WLm60VPWJgdo61v8rL09pPZoCWpLNuhJk0VngfQ2XT2uEAIFCmsr9yhZmClKbg5emSobE8WnjEzdVpe5G6xM0AGk6cqbcAFkwAD0kAAUWGMihfAAATT0lEQVR4nO1dbWOiuhJWAoKAgkp9QbGKVdHqes79/z/uEiCZyQu0tnXbPcvzYbeGEEKeZDIzmYRO5wdiNzXC5/5316LFvZg5K3dyOfe+ux4t7oMbJuc43F1O312RFvfhenHTZDPOtt9dkRb3YXVwR2Q0ycLvrsgfg96ugJgmAS5MBLh9fToHveYWOaHwSXKd3Ran0+I2uyYZS83OWbzaJrfN4970P4aFZeSwnlBSf5qGAoLDa3nlZsYY6Wh4KyhJxPQK3ZBSviRxTDZV0dnpHDu2Zdk58n+d7nZccXdcep3JIsw6Ld6FnUG6OYiBxkR/7RABhjm4FMPuZhHpipUmeXriEx1COiKXeWHmpiz5ZtikeB4DMWxzUT70NBqe1+LIb1GL/tApW9BcosS1UbRphaKlrQO9crPo3/wCvWLELiUO52W3OmlJXLfrbIqCbxEprpqDAmaRnfjj8rHuLmvNuPdinzNBCgIijycWxJEwqLC18+ukS4VYQVzMLgRdSrB1y8fttkoZFcydq19DkbjMolfNdDk+FRgvU5Nmj5Lvefk/GFmYN6WxOlNmQt7dC+LME9dRVsWQm3VK4si2zy5kAb192OHqTP86yDOkE6zVAHEnSrt5QULZ3VDmzMNvfen/Ag55u+Xzj+dTZhYstSDORqZwkP+2njuMOLjwbOe/z6jAK82QImowcWdDmkxzwuOiz7T+kvvgmcX46HQuOQFdf14lK8QVv3XE3Qb3EEenNCMQq3Chc6wz+bp3+hvQo0NgQA2BSdGm6yq9z4kqMU8JFpVAVI+SUohKhibi+rR3GMuOgDGVlYPWCLgLi3y8GNPiz9mADrl9mV4QZwTjChs6ERKDjsdCOUnZhUPAlBOORuLMOuLslrh7MKfapPH86nne6ysdVCQuRVZpDhhmBYfqgtaFXinNAXbBLMwBgaZGUVnMZ1iw5pg6VK11Oy3ej9KEs/0CpTG3KS6UxHWRme34w6JtS+LQBcMKBV2+kbghLdae44tuIaMlMls0Yj/oKvALY64kLg7TCuFoOSv1vpK4kKefpzdxsDQSt6fdwzgnvcrw6PfmReex2rWcO+BS4WjYCHQsjShBlVbpcl8x19YL5SQAJ7OixjcSV+j+3XyQri8FhlvbKQZwq1TeAWr6OsP9EwdVVUpjriBucNPcRImTFXoBjcR1Xk2n9Ig5xdxZOsgc8/plL/UXwIuoN1HQ5pZ2njLYUeJMQiwtcb5hmE0z0jUv1olF4vJirU35927t2A5hfub8D8c2g9bhdQ+mQRCcn4WkCXUvnjf9Tn85Go3CveauGfVCXhqKfaUZ1gJx4zzpzL0yu9N0lMaFZpPPoqPpqaXtz4GbzQtMWk9XixYtWrRo0aJFixYtWrRo0aJFixYtWrRo0aJFixYK+tM1w3dH/c94TZYfDvHrbVgZweuHKzL+gop8GG6WzGa3237mzRvDd/qpU+2qstdN+X4Dnv2qKk74ceLOZlVG9K7ol6eAE80X9jtru2oSEypy5RnXh4dtIOslp+koNq0CppGux9da8voh25wohJ9/B2422yE5+jhxRUB2EZ34LuIWbDOgYUEUx9BQK7KPWEYzeBBx2eJsWwbaLEoMe5BeXvWP+8uJO7FnsgBiCh1xM4tlNNYPIW53IJawwbeqgmMF2jdpifsRxLlHw9TQVj7QGs7VO1rifgJx3kg32jgcQ42vbIn7fuL6zyZ7Yg2If5Gj6H4Qcfs/jjh3uKwwXXQ+jN7Bb6aNwlpLbfKTiGM7V/4c4n4ZTglr+tEad3pLXnQT7EBslJa4zxAXsURH2uN5By4ib9QGyG1R07YNcdqzh4K0/MuJW7zY5TktdvSGHferyjjwAw1x8ubc9+Mo8EbsbrC4JrvdzlsMu7ZAnTXG9/3lxL2eniucVjxRR9yOZ3yGjRhfQNxK2Nlopie0dyc7xabA3Ard+JcTp4WOOC0+T1wWo0FFrLH0vIkgR0mIHGA/iLjZN2iVWvxG4qZoSBHiqRluWOPEwvIHEbf6+0achwQliTX+kU7nKUJZuiBIW+JU/D7izmB4E6PmtEGsvdhHntwSp+K3EfeKBtxgVZcrROsFsM7UEqfitxHHzqns0vPsanMlaJqzOb1vEjefHQJ6sux2uFh96YkKrnccbsM0HJ4qGfEWcdn1eXzZLGbaqaCChrhesj9u8tvef+7pu4nrgwHetCe7DhMYcOw8IS22Fj9NI+IdpJm4ySl8sRyjOlrWj84r1cGaTLnDTtwDnh34eVNqGEGy9H2zKNgYRCE9W6yZuGwRRr5tO45tvaS3wodwZcWPwXeuEOcN/cgy6W2ReVApn0MdofI64iY847js9Lfl8rLkUxQZHaurT53OGCDTccJ1fuJuGzx5qUgWAP6qTcS5Y38gul0MK36Sc62iyl/nRKKYTn6x46Ze5JuyIHJQscTf5urStZ64ycZHXgRixfRJi6gq3oeaS8R5Ix+eQ8xoKB805kEdwa7WETf/h2WMSn/yxncc5NMnrC75kNhEvFBpOSYz7fKCTR+HVZMmMaJFA3GzLvQI1GhnSeasuNZjScRx2WxJxD1F8jKGY3kNxO0NqSYkOpQHbJY3g4dXIK6/8aVVLkeuySvUccYTtcRxqWiXxB2crg5UZia8toYUx3PjbeW7nR5ISud+/aKeOOWtWT5zJuS7n7hDpJZKXpLXOuIumppYl+KAzfK19cT1zpqO528EYf8Q4jojVl9seBUls5toYyOlQ3sQTTPqiOsNNW9d1UY8r+tu4vTLTyQ+sbcSietPtcse/oI77LXEDfZnbdNaS8zcY4iDNQeREXBwUeV/hkbc/SfG1xDXwFtXOmntXuKONcuGhLeESNyyriZbVnMtcV1SEwzATkYq8Bji5rwS4plbe9ZUpJurVwvu7iIfiEesIe7SxFuXYGvxTuJWGjkpF4+JO9UuM3Ji9MTVwke1eQxxnYALD0FW8oKLI8cvvAR5KnwP9MQ9iYtEhmM6hpgC9bmPuAl2h9PgM9/3bamxMXE7MfiJmLZtGrLK0UQcPSROvIEQqPyDiAMpaCNZCZLSprZHAD3vA+a7ljhpsYGsL+NLYOBAJAf6yH3EjfFQtsllliTebTgQuwUiTiDCtM7j2+04NcQVxgbiHH97ORymqY+bGXkpPk7c5cWyUPc2yvBj66WoC3RPLCv5pExG9CdXYbqmsET6PmiJu6DFBjvcT+h03p88hSgZPEp3EZehBiQDbp/u1sK6E7TX1cL5D7ty9X5yMjA/tcQR65IUd7irIZ5ZbW5sf5y4ZLZazUDvD1YlZqWvAcQgGt5TVm55Kn0I9Wkyv2ugI26OWtc+QO+fID0BDr6/i7gjKsHB3kSsaqL2WiMbNUb55yNUxzriDLTA1X9CvgSIL/k4ccXTamNOPN7HQVaiYViY2ynU54uIQ+LMFgZxbwljjn+L5R7iesjTLbnD0SiH9sqAThILDrVsBAzVEEcM4Q4UJFB8n6HA54irdzL3Rqqs5BVwyiQYcV8kKnswwxnSd04n0Fz8Wyz3EAftJHUJ4anQXs+oC0k26it0gRrifGmhZAFil7P0KOKQaOF63JIJiUH5qC0oJ5vO3dAQl0DXNOXFdIhSI3GVdA9xyHSJZdNlD0Xz9gIaHCV++MDL0hPnyKGO8KrQ6x5G3I7Xg/W4ScoO061WAtYwPr7GHDjxFjGUHUXullcoqvyidxDXhwUoVaz3+ZCD9oIuNJjJ+Xdv2HHqd7XAU0iYJHkYcX1eEXag/4q7ViuldlzjcXgfNMRNobOoZ9EfOatMEt1BnAsasK86eTasaP4e0FpCgFNVc664aIkj6hdaXV4hPsk9jDjYCcG+fcIlJRNjaB64f3FARxyyL9R1NKBp8CynvEnchHs7SKweBayux3m8BJ37nPchLXG6CR9mFbPqN48jDlnbhax0uaQcVa9+1cy574eGOAKtq34nJ4OY7apl7iAu41kdjVTfKeF5ULROYd43OpktTQwHeDsGVa9/HHEwwkq90mNvx402pDJ/wHWiEteHmSBV19Nh0LAJ/g7idkCcZqk/U0QleN40Qht6rH5ZRxOkCLoRq+oDiQPzw6fNyHUpiOZCerRmiCDoPiutGXHIaa0hLv4EcZDiaI54cBXiQJvQLVi9Nq7H6b75CbOKVa13P5A4l7dsoVixX8gHtgEngq5jAtZbAOvxGuJA2UnVfjABQ+5+UTkH4jSyQR1xs8YRt2oecZrjMkCzYjQ9kDgYY7R+O/YDdcErcgk0Lezg70T7rJpNc5xO2Znzh7Fpp5Y4j78Wn+P4zbpvw2jmON6sOlXjqZk43RwHxFXus0cSB1GTfp8PdiwUe2jJsMldeUFxM3z20hAHupetvjyadqqug/RM8YMiiFGmVYKpZqhapbp3AJpVZ6JyVUOvVWr2iKI3e7hWSc9cYY/LxTYrUxA1Y+S1d2o/k7JDK5jQgXV2HCdY44oB9tn6gAcGiyjP0AI+s+Og5Xy1nlOlvTKw41Q9qXdutuO28g3YjmP9/pHEFV/RLDC4cUVEkEoZ3vJRKyzB58Hc0xQa4mAKV8M00UrdC3t3nl1yMkHUIXhOVFcnB4SHQnshS0cJC4QZosZzosj5p9/oOSnu4ZPckk0SEj1LvMYR6L9ys0ErW2jbrM5XCTltWd7AwgH3TOxAC3Vw1gmsO4OvEpwFyteLUdEaXyU5y68VgGDQ+yoViwN5FlgDfNmyji6+jnv4SMqmAam/Znht3lRekQKH6Ly1WyeF0kxRooFYBJMYDUJBIUAkceJAX1H0yt0L1I+3Fy5D0ivBVKhbHYgkvfIETeB/zepAB2SvdrjAEI+r/wfSDCFsJHZixQ/YX+IQHR+1gY440Jq7hrBpa4dCGl7YBeSAJDE4pXdIfnPiXLQe5wujGY1P1F5z1N1ETWmFQiDq1uPEr0eiTgNTwCeJ45XWW9BigE1XIzf6WyGi++UgTnQrYS+xIEx1xAlzpgHrziukvhow98NclksMxlyCo+NggjqgoiOk4ic4igS1F95ihKe5G46RrVsBF7aczSIkR7jA+iRxoSp8BVykiCJl6pGDoWx/4/FV5KdQiAQmDh5E2piTDWbOX19pUe51jYtBcggH0DnxbNLv9BIxDBqaHA+hrhWuyi40v0RCDaG9VliUWOcyf++6FaLQ6mNOonE1EJIhFjkWJ/STxCFiBsFqN0+821n4IrcUQ2qqhvHMErM4lr2dHg6XYWhJ0W+iZaolbiIEkxqWGW5T0xLic9BkjIVilwysODZ9saehsYLjkPKSjeBwmIZSdrw8FRIp/3J5NqSDrxqivEzrfFgslqmPk23QED5JHFqZqeK8Br8wcT2h+noV5iSRW4RDOo4cg9j1Ra+fPq5yL3UDIoUFExPv/x8aUma5Joi4TIys6xqaKmLiPOm18vxK8Y1xlcSpPlsPKcjI+SRxczyOS0TCLHUUAot93SdPc+ZqYq7FciXlrC6SWfNhcVwDYbvnSukz5Wvzv/DstL8zknlcG1P90UhmfHbsJ4kTjOOqdIG4HW6aut2Lt7eZI75sx9btHQiaYtB9kX0UkYDgnPmfgvW8sTSZad3AHsTE9QNTnz3lkcA1dpw+1Fjsup8lTu2zInG9AHGiV2ByeLH+HeHOWFmkqtut4zYw58u60byrdhnnvOOjVnR76HffGOmzfreOq9stlXfBK3epaYlzjvr9D5Hgzf0scZ2p/BCROGxuNmxLn1z8BklBoqU6VGv3x7nTmgGs+6q4Z8t5nXSeKcs61SMvGmlpxpO6/XHuUGWaio5FI3HmoqPpe0SaKj5NnNLBJeIyvHTT8OXm67mOOsMf6Qiv39jYP5kaYUOsULO03PEMSY8c7ZDqLzsab5ZUMommLpzWIgc99RYDKb/Zvb4Zc3Ls9OQdkcRKpcp/mrhObym2+IvkK4bQq+Z45d4q8JXun88ffjDT8t3vRn6JF2WJbDf05Qa2jaPeiZ1NfW5KEtOiHoD5v1XJ/j/yGJ0vIXeu/foj2mrXf6rsUSo/I5laKL/pX6h5Nv7Fao72gG9fqsRf1LyfhciIya2IhVywB3UEjS94USuy+x/L+Etu/9XatsxcNzYc0/ZNOV4ULFFNYJuA/m5xdvxcBa4OS3BM3zwfk7rzaF89BnWhpe9NHYvp0iTnIx3Xx5F5l9i3bNu0/HhTFNW7spKvqj8oOYSWRbexD3xjWPYpl+d/VftYkd+mxVtpdUDCXFfzhCcWNXVvgenT22zfCG7qTAHPRCf8QxlQEXgZT2mC/nw/Xq7P68thscrkqvPIGKPG+4/Ry2bHS7AN0zQcBZfFav72LXWYPy1Do9jEFp8PqzfOa3m9LcbHm9ecC+UeHw7j59XkfWccu8ksL/24T+4LHu3NV6f8tttVadKvRa+nfw2+cvPufd49t8Dnq+tmiXf1dpPHvvh/FBOI3W4M5Grxw8DNgY+fIdviG9BvDF5q8WPBQ4DV3UktfjK4k1mNsWnxgwEbU+U4ihY/GnxRioQP++hciweA7w5QYxZa/GBAsJAa5NniB2PGJCXbTtzizwAP5re0MQstfijgGCW/NeL+JOiW6Fv8fMA2q08cpd/i94Mf9EPM765Ki3vAw+1bd9cfBX4EFIp4x/g/3imXN2hJX6UAAAAASUVORK5CYII=;" parent="76zrJTwIecXoBc1lrxkZ-43" vertex="1">
          <mxGeometry x="15.87" y="7" width="88.77" height="23" as="geometry" />
        </mxCell>
        <mxCell id="76zrJTwIecXoBc1lrxkZ-46" value="Enterprise&#xa;Accounts&#xa;" style="shape=image;aspect=fixed;image=data:image/svg+xml,PHN2ZyBpZD0iTGF5ZXJfMSIgZGF0YS1uYW1lPSJMYXllciAxIiB4bWxucz0iaHR0cDovL3d3dy53My5vcmcvMjAwMC9zdmciIHZpZXdCb3g9IjAgMCA0OSA0OSI+PGRlZnM+PHN0eWxlPi5jbHMtMXtmaWxsOiNhNTZlZmY7fS5jbHMtMntmaWxsOm5vbmU7fS5jbHMtM3tmaWxsOiNmZmY7ZmlsbC1ydWxlOmV2ZW5vZGQ7fTwvc3R5bGU+PC9kZWZzPjxyZWN0IGNsYXNzPSJjbHMtMSIgeD0iMC41IiB5PSIwLjUiIHdpZHRoPSI0OCIgaGVpZ2h0PSI0OCIgcng9IjgiLz48cmVjdCBjbGFzcz0iY2xzLTIiIHg9IjE0LjczIiB5PSIxNC41IiB3aWR0aD0iMjAiIGhlaWdodD0iMjAiLz48cmVjdCBjbGFzcz0iY2xzLTIiIHg9IjE0LjUiIHk9IjE0LjUiIHdpZHRoPSIyMCIgaGVpZ2h0PSIyMCIvPjxwYXRoIGlkPSJGaWxsLTEiIGNsYXNzPSJjbHMtMyIgZD0iTTE2LjI1LDI0LjIySDI0VjE2LjQ5SDE2LjI1Wk0yNCwyNS43N0gxNi4yNWExLjU0LDEuNTQsMCwwLDEtMS41NC0xLjU1VjE2LjQ5YTEuNTUsMS41NSwwLDAsMSwxLjU0LTEuNTVIMjRhMS41NSwxLjU1LDAsMCwxLDEuNTUsMS41NXY3LjczQTEuNTQsMS41NCwwLDAsMSwyNCwyNS43N1oiLz48cGF0aCBpZD0iRmlsbC0zIiBjbGFzcz0iY2xzLTMiIGQ9Ik0zMS43MiwxOS41OGgtMy4xYTEuNTUsMS41NSwwLDAsMC0xLjU0LDEuNTV2My4wOWExLjU0LDEuNTQsMCwwLDAsMS41NCwxLjU1aDMuMWExLjU0LDEuNTQsMCwwLDAsMS41NC0xLjU1VjIxLjEzYTEuNTUsMS41NSwwLDAsMC0xLjU0LTEuNTVabS0zLjEsNC42NGgzLjFWMjEuMTNoLTMuMVoiLz48cGF0aCBpZD0iRmlsbC00IiBjbGFzcz0iY2xzLTMiIGQ9Ik0zMS43MiwyNy4zMWgtMy4xYTEuNTUsMS41NSwwLDAsMC0xLjU0LDEuNTVWMzJhMS41NCwxLjU0LDAsMCwwLDEuNTQsMS41NWgzLjFBMS41NCwxLjU0LDAsMCwwLDMzLjI2LDMyVjI4Ljg2YTEuNTUsMS41NSwwLDAsMC0xLjU0LTEuNTVaTTI4LjYyLDMyaDMuMVYyOC44NmgtMy4xWiIvPjxwYXRoIGlkPSJGaWxsLTUiIGNsYXNzPSJjbHMtMyIgZD0iTTI0LDI3LjMxSDIwLjg5YTEuNTUsMS41NSwwLDAsMC0xLjU0LDEuNTVWMzJhMS41NCwxLjU0LDAsMCwwLDEuNTQsMS41NUgyNEExLjU0LDEuNTQsMCwwLDAsMjUuNTMsMzJWMjguODZBMS41NSwxLjU1LDAsMCwwLDI0LDI3LjMxWk0yMC44OSwzMkgyNFYyOC44NkgyMC44OVoiLz48L3N2Zz4=;fontFamily=IBM Plex Sans;fontSource=fonts%2FIBMPlexSans-Regular.woff;fontSize=14;labelPosition=center;verticalLabelPosition=bottom;align=center;verticalAlign=top;spacingTop=-7;" parent="76zrJTwIecXoBc1lrxkZ-43" vertex="1">
          <mxGeometry x="311.00000000000006" y="21.54" width="48" height="48" as="geometry" />
        </mxCell>
        <mxCell id="76zrJTwIecXoBc1lrxkZ-47" value="Credentials" style="shape=image;aspect=fixed;image=data:image/svg+xml,PHN2ZyBpZD0iTGF5ZXJfMSIgZGF0YS1uYW1lPSJMYXllciAxIiB4bWxucz0iaHR0cDovL3d3dy53My5vcmcvMjAwMC9zdmciIHhtbG5zOnhsaW5rPSJodHRwOi8vd3d3LnczLm9yZy8xOTk5L3hsaW5rIiB2aWV3Qm94PSIwIDAgNDkgNDkiPjxkZWZzPjxzdHlsZT4uY2xzLTF7ZmlsbDojZmZmO2ZpbGwtcnVsZTpldmVub2RkO30uY2xzLTJ7ZmlsbDojZmE0ZDU2O30uY2xzLTN7ZmlsbDpub25lO30uY2xzLTR7bWFzazp1cmwoI21hc2spO308L3N0eWxlPjxtYXNrIGlkPSJtYXNrIiB4PSIxNy45MiIgeT0iMTUuMjgiIHdpZHRoPSIxMy4xNyIgaGVpZ2h0PSIxOC40MyIgbWFza1VuaXRzPSJ1c2VyU3BhY2VPblVzZSI+PGcgaWQ9Im1hc2stMiI+PHBvbHlnb24gaWQ9InBhdGgtMSIgY2xhc3M9ImNscy0xIiBwb2ludHM9IjE3LjkyIDMzLjcxIDMxLjA4IDMzLjcxIDMxLjA4IDE1LjI4IDE3LjkyIDE1LjI4IDE3LjkyIDMzLjcxIi8+PC9nPjwvbWFzaz48L2RlZnM+PHJlY3QgY2xhc3M9ImNscy0yIiB4PSIwLjUiIHk9IjAuNSIgd2lkdGg9IjQ4IiBoZWlnaHQ9IjQ4IiByeD0iOCIvPjxyZWN0IGNsYXNzPSJjbHMtMyIgeD0iMTQuNSIgeT0iMTQuNSIgd2lkdGg9IjIwIiBoZWlnaHQ9IjIwIi8+PHBhdGggaWQ9IkZpbGwtMSIgY2xhc3M9ImNscy0xIiBkPSJNMjQuNjgsMjQuMzZhMS4zMiwxLjMyLDAsMSwxLTEuMzIsMS4zMiwxLjMyLDEuMzIsMCwwLDEsMS4zMi0xLjMybTAsMy45NWEyLjYzLDIuNjMsMCwxLDAtMi42My0yLjYzLDIuNjMsMi42MywwLDAsMCwyLjYzLDIuNjMiLz48ZyBjbGFzcz0iY2xzLTQiPjxwb2x5Z29uIGlkPSJGaWxsLTMiIGNsYXNzPSJjbHMtMSIgcG9pbnRzPSIyMy4xOCAxOS4yMyAyNS44MiAxOS4yMyAyNS44MiAxNy45MSAyMy4xOCAxNy45MSAyMy4xOCAxOS4yMyIvPjwvZz48ZyBjbGFzcz0iY2xzLTQiPjxwYXRoIGlkPSJGaWxsLTUiIGNsYXNzPSJjbHMtMSIgZD0iTTI4LjQ1LDMyLjM5VjMxLjA4YTIsMiwwLDAsMC0yLTJIMjIuNTNhMiwyLDAsMCwwLTIsMnYxLjMxSDE5LjIzVjE2LjU5SDI5Ljc3djE1LjhabS0xLjMyLDBIMjEuODdWMzEuMDhhLjY1LjY1LDAsMCwxLC42Ni0uNjZoMy45NGEuNjUuNjUsMCwwLDEsLjY2LjY2Wm0yLjY0LTE3LjExSDE5LjIzYTEuMzEsMS4zMSwwLDAsMC0xLjMxLDEuMzF2MTUuOGExLjMyLDEuMzIsMCwwLDAsMS4zMSwxLjMySDI5Ljc3YTEuMzIsMS4zMiwwLDAsMCwxLjMxLTEuMzJWMTYuNTlhMS4zMSwxLjMxLDAsMCwwLTEuMzEtMS4zMVoiLz48L2c+PC9zdmc+;fontFamily=IBM Plex Sans;fontSource=fonts%2FIBMPlexSans-Regular.woff;fontSize=14;labelPosition=center;verticalLabelPosition=bottom;align=center;verticalAlign=top;spacingTop=-7;" parent="76zrJTwIecXoBc1lrxkZ-43" vertex="1">
          <mxGeometry x="640.5" y="21.54" width="48" height="48" as="geometry" />
        </mxCell>
        <mxCell id="BgY2O2PTcMV9OpzHBaAK-5" value="&lt;font data-font-src=&quot;fonts/IBMPlexSans-Regular.woff&quot; face=&quot;IBM Plex Sans&quot;&gt;READ&lt;/font&gt;" style="edgeLabel;html=1;align=center;verticalAlign=middle;resizable=0;points=[];labelBackgroundColor=none;" parent="76zrJTwIecXoBc1lrxkZ-43" vertex="1" connectable="0">
          <mxGeometry x="354" y="6.997288135593294" as="geometry">
            <mxPoint x="-3" y="1" as="offset" />
          </mxGeometry>
        </mxCell>
        <mxCell id="76zrJTwIecXoBc1lrxkZ-48" style="edgeStyle=orthogonalEdgeStyle;rounded=0;orthogonalLoop=1;jettySize=auto;html=1;entryX=0.5;entryY=0;entryDx=0;entryDy=0;exitX=0.5;exitY=1;exitDx=0;exitDy=0;" parent="1" source="76zrJTwIecXoBc1lrxkZ-38" target="76zrJTwIecXoBc1lrxkZ-47" edge="1">
          <mxGeometry relative="1" as="geometry">
            <mxPoint x="1541.17" y="297.53999999999996" as="sourcePoint" />
          </mxGeometry>
        </mxCell>
        <mxCell id="76zrJTwIecXoBc1lrxkZ-49" style="edgeStyle=orthogonalEdgeStyle;rounded=0;orthogonalLoop=1;jettySize=auto;html=1;exitX=0.5;exitY=1;exitDx=0;exitDy=0;entryX=0.5;entryY=0;entryDx=0;entryDy=0;" parent="1" source="76zrJTwIecXoBc1lrxkZ-11" target="76zrJTwIecXoBc1lrxkZ-46" edge="1">
          <mxGeometry relative="1" as="geometry">
            <mxPoint x="1325" y="330.53999999999996" as="sourcePoint" />
          </mxGeometry>
        </mxCell>
        <mxCell id="76zrJTwIecXoBc1lrxkZ-50" style="edgeStyle=orthogonalEdgeStyle;rounded=0;orthogonalLoop=1;jettySize=auto;html=1;exitX=1;exitY=0.5;exitDx=0;exitDy=0;entryX=0;entryY=0.5;entryDx=0;entryDy=0;strokeColor=#00CC66;dashed=1;strokeWidth=1;" parent="1" edge="1">
          <mxGeometry relative="1" as="geometry">
            <mxPoint x="972.5" y="743" as="sourcePoint" />
            <mxPoint x="1022.5" y="743" as="targetPoint" />
          </mxGeometry>
        </mxCell>
        <mxCell id="76zrJTwIecXoBc1lrxkZ-51" value="Legend" style="text;html=1;align=center;verticalAlign=middle;resizable=0;points=[];autosize=1;strokeColor=none;fillColor=none;fontStyle=4" parent="1" vertex="1">
          <mxGeometry x="1192.5" y="708" width="60" height="30" as="geometry" />
        </mxCell>
        <mxCell id="76zrJTwIecXoBc1lrxkZ-52" value="Access Policy" style="text;html=1;align=center;verticalAlign=middle;resizable=0;points=[];autosize=1;strokeColor=none;fillColor=none;" parent="1" vertex="1">
          <mxGeometry x="1022.5" y="728" width="100" height="30" as="geometry" />
        </mxCell>
        <mxCell id="76zrJTwIecXoBc1lrxkZ-53" value="" style="endArrow=classic;html=1;rounded=0;" parent="1" edge="1">
          <mxGeometry width="50" height="50" relative="1" as="geometry">
            <mxPoint x="1132.5" y="742" as="sourcePoint" />
            <mxPoint x="1182.5" y="742" as="targetPoint" />
          </mxGeometry>
        </mxCell>
        <mxCell id="76zrJTwIecXoBc1lrxkZ-54" value="Data Transfer" style="text;html=1;align=center;verticalAlign=middle;resizable=0;points=[];autosize=1;strokeColor=none;fillColor=none;" parent="1" vertex="1">
          <mxGeometry x="1180" y="728" width="100" height="30" as="geometry" />
        </mxCell>
        <mxCell id="76zrJTwIecXoBc1lrxkZ-55" value="" style="endArrow=classic;html=1;rounded=0;strokeColor=#000000;dashed=1;strokeWidth=1;" parent="1" edge="1">
          <mxGeometry width="50" height="50" relative="1" as="geometry">
            <mxPoint x="1297.5" y="742.5" as="sourcePoint" />
            <mxPoint x="1347.5" y="742.5" as="targetPoint" />
          </mxGeometry>
        </mxCell>
        <mxCell id="76zrJTwIecXoBc1lrxkZ-56" value="Optional Connection" style="text;html=1;align=left;verticalAlign=middle;resizable=0;points=[];autosize=1;strokeColor=none;fillColor=none;" parent="1" vertex="1">
          <mxGeometry x="1357.5" y="728" width="130" height="30" as="geometry" />
        </mxCell>
        <mxCell id="v_ReZwLUWhPx22aXuJ78-7" value="CBR" style="sketch=0;pointerEvents=1;shadow=0;dashed=0;html=1;strokeColor=none;fillColor=#505050;labelPosition=center;verticalLabelPosition=bottom;verticalAlign=top;outlineConnect=0;align=center;shape=mxgraph.office.security.lock_protected;" vertex="1" parent="1">
          <mxGeometry x="1192.5" y="540" width="18" height="24.63" as="geometry" />
        </mxCell>
      </root>
    </mxGraphModel>
  </diagram>
</mxfile>
